999
dxflib 2.2.0.0
  0
SECTION
  2
HEADER
  9
$ACADVER
  1
AC1015
  9
$HANDSEED
  5
FFFF
  9
$SPLINESEGS
 70
8
  9
$DIMEXE
 40
0.05
  9
$PSVPSCALE
 40
0.751575
  9
$DIMAZIN
 70
8
  9
$DIMZIN
 70
8
  9
$DIMLUNIT
 70
2
  9
$GRIDMODE
 70
1
  9
$INSUNITS
 70
1
  9
$DIMADEC
 70
2
  9
$DIMASZ
 40
0.1
  9
$DIMGAP
 40
0.025
  9
$DIMTXT
 40
0.1
  9
$GRIDUNIT
 10
0.0
 20
0.0
  9
$DIMEXO
 40
0.025
  9
$LUPREC
 70
2
  9
$CLAYER
  8
dimensions
  9
$PINSBASE
 10
0.5852299348931657
 20
-0.5785679635499228
 30
0.0
  9
$DIMAUNIT
 70
0
  9
$AUPREC
 70
2
  9
$PLIMMIN
 10
0.0
 20
0.0
  9
$LUNITS
 70
2
  9
$PLIMMAX
 10
11.0
 20
8.5
  9
$DIMSTYLE
  2
Standard
  9
$AUNITS
 70
0
  9
$CLAYER
  8
border
  0
ENDSEC
  0
SECTION
  2
TABLES
  0
TABLE
  2
VPORT
  5
8
100
AcDbSymbolTable
 70
1
  0
VPORT
  5
30
100
AcDbSymbolTableRecord
100
AcDbViewportTableRecord
  2
*Active
 70
0
 10
0.0
 20
0.0
 11
1.0
 21
1.0
 12
286.3055555555554861
 22
148.5
 13
0.0
 23
0.0
 14
10.0
 24
10.0
 15
10.0
 25
10.0
 16
0.0
 26
0.0
 36
1.0
 17
0.0
 27
0.0
 37
0.0
 40
297.0
 41
1.92798353909465
 42
50.0
 43
0.0
 44
0.0
 50
0.0
 51
0.0
 71
0
 72
100
 73
1
 74
3
 75
1
 76
1
 77
0
 78
0
281
0
 65
1
110
0.0
120
0.0
130
0.0
111
1.0
121
0.0
131
0.0
112
0.0
122
1.0
132
0.0
 79
0
146
0.0
  0
ENDTAB
  0
TABLE
  2
LTYPE
  5
5
100
AcDbSymbolTable
 70
21
  0
LTYPE
  5
14
100
AcDbSymbolTableRecord
100
AcDbLinetypeTableRecord
  2
ByBlock
 70
0
  3

 72
65
 73
0
 40
0.0
  0
LTYPE
  5
15
100
AcDbSymbolTableRecord
100
AcDbLinetypeTableRecord
  2
ByLayer
 70
0
  3

 72
65
 73
0
 40
0.0
  0
LTYPE
  5
16
100
AcDbSymbolTableRecord
100
AcDbLinetypeTableRecord
  2
CONTINUOUS
 70
0
  3
Solid line
 72
65
 73
0
 40
0.0
  0
LTYPE
  5
31
100
AcDbSymbolTableRecord
100
AcDbLinetypeTableRecord
  2
DOT
 70
0
  3
Dot . . . . . . . . . . . . . . . . . . . . . .
 72
65
 73
2
 40
6.3499999999999996
 49
0.0
 74
0
 49
-6.3499999999999996
 74
0
  0
LTYPE
  5
32
100
AcDbSymbolTableRecord
100
AcDbLinetypeTableRecord
  2
DOT2
 70
0
  3
Dot (.5x) .....................................
 72
65
 73
2
 40
3.1749999999999998
 49
0.0
 74
0
 49
-3.1749999999999998
 74
0
  0
LTYPE
  5
33
100
AcDbSymbolTableRecord
100
AcDbLinetypeTableRecord
  2
DOTX2
 70
0
  3
Dot (2x) .  .  .  .  .  .  .  .  .  .  .  .  .
 72
65
 73
2
 40
12.6999999999999993
 49
0.0
 74
0
 49
-12.6999999999999993
 74
0
  0
LTYPE
  5
34
100
AcDbSymbolTableRecord
100
AcDbLinetypeTableRecord
  2
DASHED
 70
0
  3
Dashed __ __ __ __ __ __ __ __ __ __ __ __ __ _
 72
65
 73
2
 40
19.0500000000000007
 49
12.6999999999999993
 74
0
 49
-6.3499999999999996
 74
0
  0
LTYPE
  5
35
100
AcDbSymbolTableRecord
100
AcDbLinetypeTableRecord
  2
DASHED2
 70
0
  3
Dashed (.5x) _ _ _ _ _ _ _ _ _ _ _ _ _ _ _ _ _
 72
65
 73
2
 40
9.5250000000000004
 49
6.3499999999999996
 74
0
 49
-3.1749999999999998
 74
0
  0
LTYPE
  5
36
100
AcDbSymbolTableRecord
100
AcDbLinetypeTableRecord
  2
DASHEDX2
 70
0
  3
Dashed (2x) ____  ____  ____  ____  ____  ___
 72
65
 73
2
 40
38.1000000000000014
 49
25.3999999999999986
 74
0
 49
-12.6999999999999993
 74
0
  0
LTYPE
  5
37
100
AcDbSymbolTableRecord
100
AcDbLinetypeTableRecord
  2
DASHDOT
 70
0
  3
Dash dot __ . __ . __ . __ . __ . __ . __ . __
 72
65
 73
4
 40
25.3999999999999986
 49
12.6999999999999993
 74
0
 49
-6.3499999999999996
 74
0
 49
0.0
 74
0
 49
-6.3499999999999996
 74
0
  0
LTYPE
  5
38
100
AcDbSymbolTableRecord
100
AcDbLinetypeTableRecord
  2
DASHDOT2
 70
0
  3
Dash dot (.5x) _._._._._._._._._._._._._._._.
 72
65
 73
4
 40
12.6999999999999993
 49
6.3499999999999996
 74
0
 49
-3.1749999999999998
 74
0
 49
0.0
 74
0
 49
-3.1749999999999998
 74
0
  0
LTYPE
  5
39
100
AcDbSymbolTableRecord
100
AcDbLinetypeTableRecord
  2
DASHDOTX2
 70
0
  3
Dash dot (2x) ____  .  ____  .  ____  .  ___
 72
65
 73
4
 40
50.7999999999999972
 49
25.3999999999999986
 74
0
 49
-12.6999999999999993
 74
0
 49
0.0
 74
0
 49
-12.6999999999999993
 74
0
  0
LTYPE
  5
3A
100
AcDbSymbolTableRecord
100
AcDbLinetypeTableRecord
  2
DIVIDE
 70
0
  3
Divide ____ . . ____ . . ____ . . ____ . . ____
 72
65
 73
6
 40
31.75
 49
12.6999999999999993
 74
0
 49
-6.3499999999999996
 74
0
 49
0.0
 74
0
 49
-6.3499999999999996
 74
0
 49
0.0
 74
0
 49
-6.3499999999999996
 74
0
  0
LTYPE
  5
3B
100
AcDbSymbolTableRecord
100
AcDbLinetypeTableRecord
  2
DIVIDE2
 70
0
  3
Divide (.5x) __..__..__..__..__..__..__..__.._
 72
65
 73
6
 40
15.875
 49
6.3499999999999996
 74
0
 49
-3.1749999999999998
 74
0
 49
0.0
 74
0
 49
-3.1749999999999998
 74
0
 49
0.0
 74
0
 49
-3.1749999999999998
 74
0
  0
LTYPE
  5
3C
100
AcDbSymbolTableRecord
100
AcDbLinetypeTableRecord
  2
DIVIDEX2
 70
0
  3
Divide (2x) ________  .  .  ________  .  .  _
 72
65
 73
6
 40
63.5
 49
25.3999999999999986
 74
0
 49
-12.6999999999999993
 74
0
 49
0.0
 74
0
 49
-12.6999999999999993
 74
0
 49
0.0
 74
0
 49
-12.6999999999999993
 74
0
  0
LTYPE
  5
3D
100
AcDbSymbolTableRecord
100
AcDbLinetypeTableRecord
  2
CENTER
 70
0
  3
Center ____ _ ____ _ ____ _ ____ _ ____ _ ____
 72
65
 73
4
 40
50.7999999999999972
 49
31.75
 74
0
 49
-6.3499999999999996
 74
0
 49
6.3499999999999996
 74
0
 49
-6.3499999999999996
 74
0
  0
LTYPE
  5
3E
100
AcDbSymbolTableRecord
100
AcDbLinetypeTableRecord
  2
CENTER2
 70
0
  3
Center (.5x) ___ _ ___ _ ___ _ ___ _ ___ _ ___
 72
65
 73
4
 40
28.5749999999999993
 49
19.0500000000000007
 74
0
 49
-3.1749999999999998
 74
0
 49
3.1749999999999998
 74
0
 49
-3.1749999999999998
 74
0
  0
LTYPE
  5
3F
100
AcDbSymbolTableRecord
100
AcDbLinetypeTableRecord
  2
CENTERX2
 70
0
  3
Center (2x) ________  __  ________  __  _____
 72
65
 73
4
 40
101.5999999999999943
 49
63.5
 74
0
 49
-12.6999999999999993
 74
0
 49
12.6999999999999993
 74
0
 49
-12.6999999999999993
 74
0
  0
LTYPE
  5
40
100
AcDbSymbolTableRecord
100
AcDbLinetypeTableRecord
  2
BORDER
 70
0
  3
Border __ __ . __ __ . __ __ . __ __ . __ __ .
 72
65
 73
6
 40
44.4500000000000028
 49
12.6999999999999993
 74
0
 49
-6.3499999999999996
 74
0
 49
12.6999999999999993
 74
0
 49
-6.3499999999999996
 74
0
 49
0.0
 74
0
 49
-6.3499999999999996
 74
0
  0
LTYPE
  5
41
100
AcDbSymbolTableRecord
100
AcDbLinetypeTableRecord
  2
BORDER2
 70
0
  3
Border (.5x) __.__.__.__.__.__.__.__.__.__.__.
 72
65
 73
6
 40
22.2250000000000014
 49
6.3499999999999996
 74
0
 49
-3.1749999999999998
 74
0
 49
6.3499999999999996
 74
0
 49
-3.1749999999999998
 74
0
 49
0.0
 74
0
 49
-3.1749999999999998
 74
0
  0
LTYPE
  5
42
100
AcDbSymbolTableRecord
100
AcDbLinetypeTableRecord
  2
BORDERX2
 70
0
  3
Border (2x) ____  ____  .  ____  ____  .  ___
 72
65
 73
6
 40
88.9000000000000057
 49
25.3999999999999986
 74
0
 49
-12.6999999999999993
 74
0
 49
25.3999999999999986
 74
0
 49
-12.6999999999999993
 74
0
 49
0.0
 74
0
 49
-12.6999999999999993
 74
0
  0
ENDTAB
  0
TABLE
  2
LAYER
  5
2
100
AcDbSymbolTable
 70
11
  0
LAYER
  5
10
100
AcDbSymbolTableRecord
100
AcDbLayerTableRecord
  2
0
 70
0
 62
7
420
0
  6
CONTINUOUS
370
25
390
F
  0
LAYER
  5
43
100
AcDbSymbolTableRecord
100
AcDbLayerTableRecord
  2
dimensions
 70
0
 62
5
420
255
  6
CONTINUOUS
370
25
390
F
  0
LAYER
  5
44
100
AcDbSymbolTableRecord
100
AcDbLayerTableRecord
  2
contour
 70
0
 62
7
420
0
  6
CONTINUOUS
370
35
390
F
  0
LAYER
  5
45
100
AcDbSymbolTableRecord
100
AcDbLayerTableRecord
  2
board
 70
1
 62
-3
420
65280
  6
CONTINUOUS
370
25
390
F
  0
LAYER
  5
46
100
AcDbSymbolTableRecord
100
AcDbLayerTableRecord
  2
center
 70
0
 62
1
420
16711680
  6
CENTER
370
25
390
F
  0
LAYER
  5
47
100
AcDbSymbolTableRecord
100
AcDbLayerTableRecord
  2
pcb bosses
 70
0
 62
7
420
0
  6
CONTINUOUS
370
25
390
F
  0
LAYER
  5
48
100
AcDbSymbolTableRecord
100
AcDbLayerTableRecord
  2
contour_trans
 70
0
 62
7
420
0
  6
DASHED
370
35
390
F
  0
LAYER
  5
49
100
AcDbSymbolTableRecord
100
AcDbLayerTableRecord
  2
cuts
 70
0
 62
7
420
0
  6
DASHED2
370
25
390
F
  0
LAYER
  5
4A
100
AcDbSymbolTableRecord
100
AcDbLayerTableRecord
  2
border
 70
0
 62
7
420
0
  6
CONTINUOUS
370
25
390
F
  0
LAYER
  5
4B
100
AcDbSymbolTableRecord
100
AcDbLayerTableRecord
  2
standoffs
 70
0
 62
7
420
0
  6
CONTINUOUS
370
25
390
F
  0
LAYER
  5
4C
100
AcDbSymbolTableRecord
100
AcDbLayerTableRecord
  2
help
 70
1
 62
-2
420
16776960
  6
CONTINUOUS
370
0
390
F
  0
ENDTAB
  0
TABLE
  2
STYLE
  5
3
100
AcDbSymbolTable
 70
1
  0
STYLE
  5
11
100
AcDbSymbolTableRecord
100
AcDbTextStyleTableRecord
  2
Standard
 70
0
 40
0.0
 41
0.75
 50
0.0
 71
0
 42
2.5
  3
txt
  4

  0
ENDTAB
  0
TABLE
  2
VIEW
  5
6
100
AcDbSymbolTable
 70
0
  0
ENDTAB
  0
TABLE
  2
UCS
  5
7
100
AcDbSymbolTable
 70
0
  0
ENDTAB
  0
TABLE
  2
APPID
  5
9
100
AcDbSymbolTable
 70
1
  0
APPID
  5
12
100
AcDbSymbolTableRecord
100
AcDbRegAppTableRecord
  2
ACAD
 70
0
  0
ENDTAB
  0
TABLE
  2
DIMSTYLE
  5
A
100
AcDbSymbolTable
 70
1
100
AcDbDimStyleTable
 71
0
  0
DIMSTYLE
105
27
100
AcDbSymbolTableRecord
100
AcDbDimStyleTableRecord
  2
Standard
 41
0.1
 42
0.025
 43
3.75
 44
0.05
 70
0
 73
0
 74
0
 77
1
 78
8
140
0.1
141
2.5
143
0.03937007874016
147
0.025
171
3
172
1
271
2
272
2
274
3
278
44
283
0
284
8
340
11
  0
ENDTAB
  0
TABLE
  2
BLOCK_RECORD
  5
1
100
AcDbSymbolTable
 70
1
  0
BLOCK_RECORD
  5
1F
100
AcDbSymbolTableRecord
100
AcDbBlockTableRecord
  2
*Model_Space
340
22
  0
BLOCK_RECORD
  5
1B
100
AcDbSymbolTableRecord
100
AcDbBlockTableRecord
  2
*Paper_Space
340
1E
  0
BLOCK_RECORD
  5
23
100
AcDbSymbolTableRecord
100
AcDbBlockTableRecord
  2
*Paper_Space0
340
26
  0
ENDTAB
  0
ENDSEC
  0
SECTION
  2
BLOCKS
  0
BLOCK
  5
20
100
AcDbEntity
  8
0
100
AcDbBlockBegin
  2
*Model_Space
 70
0
 10
0.0
 20
0.0
 30
0.0
  3
*Model_Space
  1

  0
ENDBLK
  5
21
100
AcDbEntity
  8
0
100
AcDbBlockEnd
  0
BLOCK
  5
1C
100
AcDbEntity
 67
1
  8
0
100
AcDbBlockBegin
  2
*Paper_Space
 70
0
 10
0.0
 20
0.0
 30
0.0
  3
*Paper_Space
  1

  0
ENDBLK
  5
1D
100
AcDbEntity
 67
1
  8
0
100
AcDbBlockEnd
  0
BLOCK
  5
24
100
AcDbEntity
  8
0
100
AcDbBlockBegin
  2
*Paper_Space0
 70
0
 10
0.0
 20
0.0
 30
0.0
  3
*Paper_Space0
  1

  0
ENDBLK
  5
25
100
AcDbEntity
  8
0
100
AcDbBlockEnd
  0
ENDSEC
  0
SECTION
  2
ENTITIES
  0
LINE
  5
4D
100
AcDbEntity
100
AcDbLine
  8
contour
 62
256
370
-1
  6
ByLayer
 10
6.0530000000000008
 20
8.4518400971627337
 30
0.0
 11
6.052999999999999
 21
5.551840097162736
 31
0.0
  0
LINE
  5
4E
100
AcDbEntity
100
AcDbLine
  8
contour
 62
256
370
-1
  6
ByLayer
 10
6.052999999999999
 20
5.551840097162736
 30
0.0
 11
8.947000000000001
 21
5.5518400971627351
 31
0.0
  0
LINE
  5
4F
100
AcDbEntity
100
AcDbLine
  8
contour
 62
256
370
-1
  6
ByLayer
 10
8.947000000000001
 20
5.5518400971627351
 30
0.0
 11
8.947000000000001
 21
8.4518400971627337
 31
0.0
  0
LINE
  5
50
100
AcDbEntity
100
AcDbLine
  8
contour
 62
256
370
-1
  6
ByLayer
 10
8.947000000000001
 20
8.4518400971627337
 30
0.0
 11
6.0530000000000008
 21
8.4518400971627337
 31
0.0
  0
LINE
  5
51
100
AcDbEntity
100
AcDbLine
  8
contour
 62
256
370
-1
  6
ByLayer
 10
5.987000000000001
 20
8.6618400971627345
 30
0.0
 11
5.987000000000001
 21
5.3418400971627351
 31
0.0
  0
LINE
  5
52
100
AcDbEntity
100
AcDbLine
  8
contour
 62
256
370
-1
  6
ByLayer
 10
5.987000000000001
 20
5.3418400971627351
 30
0.0
 11
7.5000000000000018
 21
5.0018400971627353
 31
0.0
  0
LINE
  5
53
100
AcDbEntity
100
AcDbLine
  8
contour
 62
256
370
-1
  6
ByLayer
 10
7.5000000000000018
 20
5.0018400971627353
 30
0.0
 11
9.0130000000000088
 21
5.3418400971627351
 31
0.0
  0
LINE
  5
54
100
AcDbEntity
100
AcDbLine
  8
contour
 62
256
370
-1
  6
ByLayer
 10
9.0130000000000088
 20
5.3418400971627351
 30
0.0
 11
9.0130000000000017
 21
8.6618400971627345
 31
0.0
  0
LINE
  5
55
100
AcDbEntity
100
AcDbLine
  8
contour
 62
256
370
-1
  6
ByLayer
 10
9.0130000000000017
 20
8.6618400971627345
 30
0.0
 11
7.5000000000000009
 21
9.0018400971627344
 31
0.0
  0
LINE
  5
56
100
AcDbEntity
100
AcDbLine
  8
contour
 62
256
370
-1
  6
ByLayer
 10
7.5000000000000009
 20
9.0018400971627344
 30
0.0
 11
5.987000000000001
 21
8.6618400971627345
 31
0.0
  0
LINE
  5
57
100
AcDbEntity
100
AcDbLine
  8
center
 62
256
370
-1
  6
ByLayer
 10
9.1418115676258296
 20
7.0
 30
0.0
 11
5.8418115676258289
 21
7.0
 31
0.0
  0
LINE
  5
58
100
AcDbEntity
100
AcDbLine
  8
center
 62
256
370
-1
  6
ByLayer
 10
7.5000000000000009
 20
9.2018400971627372
 30
0.0
 11
7.4999999999999991
 21
4.801840097162736
 31
0.0
  0
CIRCLE
  5
59
100
AcDbEntity
100
AcDbCircle
  8
contour
 62
256
370
-1
  6
ByLayer
 10
7.5
 20
8.7518400971627344
 30
0.0
 40
0.0875
  0
CIRCLE
  5
5A
100
AcDbEntity
100
AcDbCircle
  8
contour
 62
256
370
-1
  6
ByLayer
 10
7.5000000000000018
 20
5.2518400971627353
 30
0.0
 40
0.0875
  0
LINE
  5
5B
100
AcDbEntity
100
AcDbLine
  8
contour
 62
256
370
-1
  6
ByLayer
 10
12.2721259124088569
 20
5.0
 30
0.0
 11
12.2721259124088569
 21
9.0
 31
0.0
  0
LINE
  5
5C
100
AcDbEntity
100
AcDbLine
  8
contour
 62
256
370
-1
  6
ByLayer
 10
12.2721259124088569
 20
5.0
 30
0.0
 11
12.1471259124088569
 21
5.0
 31
0.0
  0
LINE
  5
5D
100
AcDbEntity
100
AcDbLine
  8
contour
 62
256
370
-1
  6
ByLayer
 10
12.1471259124088569
 20
5.0
 30
0.0
 11
12.1471259124088569
 21
5.0
 31
0.0
  0
LINE
  5
5E
100
AcDbEntity
100
AcDbLine
  8
contour
 62
256
370
-1
  6
ByLayer
 10
12.1471259124088569
 20
5.0
 30
0.0
 11
12.1471259124088569
 21
5.3399999999999999
 31
0.0
  0
LINE
  5
5F
100
AcDbEntity
100
AcDbLine
  8
contour
 62
256
370
-1
  6
ByLayer
 10
12.2721259124088569
 20
9.0
 30
0.0
 11
12.1471259124088569
 21
9.0
 31
0.0
  0
LINE
  5
60
100
AcDbEntity
100
AcDbLine
  8
contour
 62
256
370
-1
  6
ByLayer
 10
12.1471259124088569
 20
9.0
 30
0.0
 11
12.1471259124088569
 21
9.0
 31
0.0
  0
LINE
  5
61
100
AcDbEntity
100
AcDbLine
  8
contour
 62
256
370
-1
  6
ByLayer
 10
12.1471259124088569
 20
9.0
 30
0.0
 11
12.1471259124088569
 21
8.6600000000000001
 31
0.0
  0
LINE
  5
62
100
AcDbEntity
100
AcDbLine
  8
contour_trans
 62
256
370
-1
  6
ByLayer
 10
12.1771259124088562
 20
5.5500000000000007
 30
0.0
 11
12.1771259124088562
 21
8.4500000000000011
 31
0.0
  0
LINE
  5
63
100
AcDbEntity
100
AcDbLine
  8
contour_trans
 62
256
370
-1
  6
ByLayer
 10
12.1471259124088569
 20
5.484
 30
0.0
 11
12.1471259124088569
 21
5.3399999999999999
 31
0.0
  0
LINE
  5
64
100
AcDbEntity
100
AcDbLine
  8
contour_trans
 62
256
370
-1
  6
ByLayer
 10
12.1471259124088569
 20
8.5160000000000018
 30
0.0
 11
12.1471259124088569
 21
8.6600000000000001
 31
0.0
  0
LINE
  5
65
100
AcDbEntity
100
AcDbLine
  8
board
 62
256
370
-1
  6
ByLayer
 10
11.8651259124088568
 20
6.9257344215228702
 30
0.0
 11
11.8651259124088568
 21
6.3257344215228706
 31
0.0
  0
LINE
  5
66
100
AcDbEntity
100
AcDbLine
  8
board
 62
256
370
-1
  6
ByLayer
 10
11.8651259124088568
 20
7.6757344215228693
 30
0.0
 11
11.8651259124088568
 21
7.0757344215228697
 31
0.0
  0
LINE
  5
67
100
AcDbEntity
100
AcDbLine
  8
contour
 62
256
370
-1
  6
ByLayer
 10
1.8404425182481976
 20
9.0
 30
0.0
 11
1.8404425182481974
 21
5.0
 31
0.0
  0
LINE
  5
68
100
AcDbEntity
100
AcDbLine
  8
contour
 62
256
370
-1
  6
ByLayer
 10
1.8404425182481976
 20
9.0
 30
0.0
 11
1.9654425182481976
 21
9.0
 31
0.0
  0
LINE
  5
69
100
AcDbEntity
100
AcDbLine
  8
contour
 62
256
370
-1
  6
ByLayer
 10
1.9654425182481976
 20
9.0
 30
0.0
 11
1.9654425182481976
 21
9.0
 31
0.0
  0
LINE
  5
6A
100
AcDbEntity
100
AcDbLine
  8
contour
 62
256
370
-1
  6
ByLayer
 10
1.9654425182481976
 20
9.0
 30
0.0
 11
1.9654425182481976
 21
8.6600000000000001
 31
0.0
  0
LINE
  5
6B
100
AcDbEntity
100
AcDbLine
  8
contour
 62
256
370
-1
  6
ByLayer
 10
1.8404425182481976
 20
5.0000000000000009
 30
0.0
 11
1.9654425182481976
 21
5.0000000000000009
 31
0.0
  0
LINE
  5
6C
100
AcDbEntity
100
AcDbLine
  8
contour
 62
256
370
-1
  6
ByLayer
 10
1.9654425182481976
 20
5.0000000000000009
 30
0.0
 11
1.9654425182481976
 21
5.0000000000000009
 31
0.0
  0
LINE
  5
6D
100
AcDbEntity
100
AcDbLine
  8
contour
 62
256
370
-1
  6
ByLayer
 10
1.9654425182481976
 20
5.0000000000000009
 30
0.0
 11
1.9654425182481976
 21
5.3400000000000007
 31
0.0
  0
LINE
  5
6E
100
AcDbEntity
100
AcDbLine
  8
contour_trans
 62
256
370
-1
  6
ByLayer
 10
1.9354425182481976
 20
8.4499999999999993
 30
0.0
 11
1.9354425182481976
 21
5.5499999999999989
 31
0.0
  0
LINE
  5
6F
100
AcDbEntity
100
AcDbLine
  8
contour_trans
 62
256
370
-1
  6
ByLayer
 10
1.9654425182481976
 20
8.516
 30
0.0
 11
1.9654425182481976
 21
8.6600000000000001
 31
0.0
  0
LINE
  5
70
100
AcDbEntity
100
AcDbLine
  8
contour_trans
 62
256
370
-1
  6
ByLayer
 10
1.9654425182481976
 20
5.4839999999999991
 30
0.0
 11
1.9654425182481976
 21
5.3399999999999999
 31
0.0
  0
LINE
  5
71
100
AcDbEntity
100
AcDbLine
  8
0
 62
256
370
-1
  6
ByLayer
 10
-0.0232040516650809
 20
1.4246006429632345
 30
0.0
 11
13.1017959483349209
 21
1.4246006429632292
 31
0.0
  0
LINE
  5
72
100
AcDbEntity
100
AcDbLine
  8
0
 62
256
370
-1
  6
ByLayer
 10
13.1017959483349209
 20
1.4246006429632292
 30
0.0
 11
13.1017959483349209
 21
11.424600642963231
 31
0.0
  0
LINE
  5
73
100
AcDbEntity
100
AcDbLine
  8
0
 62
256
370
-1
  6
ByLayer
 10
13.1017959483349209
 20
11.424600642963231
 30
0.0
 11
-0.0232040516650791
 21
11.4246006429632292
 31
0.0
  0
LINE
  5
74
100
AcDbEntity
100
AcDbLine
  8
0
 62
256
370
-1
  6
ByLayer
 10
-0.0232040516650791
 20
11.4246006429632292
 30
0.0
 11
-0.0232040516650809
 21
1.4246006429632345
 31
0.0
  0
LINE
  5
75
100
AcDbEntity
100
AcDbLine
  8
0
 62
256
370
-1
  6
ByLayer
 10
13.1017959483349209
 20
2.1547450832832311
 30
0.0
 11
13.1017959483349209
 21
1.4246006429632292
 31
0.0
  0
LINE
  5
76
100
AcDbEntity
100
AcDbLine
  8
0
 62
256
370
-1
  6
ByLayer
 10
13.1017959483349209
 20
1.4246006429632292
 30
0.0
 11
-0.0232040516650809
 21
1.4246006429632345
 31
0.0
  0
LINE
  5
77
100
AcDbEntity
100
AcDbLine
  8
0
 62
256
370
-1
  6
ByLayer
 10
-0.0232040516650809
 20
1.4246006429632345
 30
0.0
 11
-0.0232040516650791
 21
2.1547450832832329
 31
0.0
  0
LINE
  5
78
100
AcDbEntity
100
AcDbLine
  8
0
 62
256
370
-1
  6
ByLayer
 10
13.1017959483349209
 20
2.1547450832832311
 30
0.0
 11
13.1017959483349209
 21
1.4246006429632292
 31
0.0
  0
LINE
  5
79
100
AcDbEntity
100
AcDbLine
  8
0
 62
256
370
-1
  6
ByLayer
 10
13.1017959483349209
 20
1.4246006429632292
 30
0.0
 11
4.1429142254549269
 21
1.424600642963231
 31
0.0
  0
LINE
  5
7A
100
AcDbEntity
100
AcDbLine
  8
0
 62
256
370
-1
  6
ByLayer
 10
13.1017959483349209
 20
1.7896728631232328
 30
0.0
 11
13.1017959483349209
 21
1.4246006429632292
 31
0.0
  0
LINE
  5
7B
100
AcDbEntity
100
AcDbLine
  8
0
 62
256
370
-1
  6
ByLayer
 10
13.1017959483349209
 20
1.4246006429632292
 30
0.0
 11
4.1429142254549269
 21
1.424600642963231
 31
0.0
  0
MTEXT
  5
7C
100
AcDbEntity
100
AcDbMText
  8
0
 62
256
370
-1
  6
ByLayer
 10
2.3175531246549212
 20
1.6393490077632329
 30
0.0
 40
0.375
 41
125.0
 71
9
 72
2
  1
Exoteric\P\~\~Analytics
  7
standard
 50
0.0
 73
1
 44
1.0
  0
LINE
  5
7D
100
AcDbEntity
100
AcDbLine
  8
0
 62
256
370
-1
  6
ByLayer
 10
-0.0232040516650791
 20
2.6746006429632345
 30
0.0
 11
13.1017959483349209
 21
2.6746006429632327
 31
0.0
  0
LINE
  5
7E
100
AcDbEntity
100
AcDbLine
  8
0
 62
256
370
-1
  6
ByLayer
 10
13.1017959483349209
 20
2.6746006429632327
 30
0.0
 11
13.1017959483349209
 21
1.4246006429632292
 31
0.0
  0
LINE
  5
7F
100
AcDbEntity
100
AcDbLine
  8
0
 62
256
370
-1
  6
ByLayer
 10
13.1017959483349209
 20
1.4246006429632292
 30
0.0
 11
-0.0232040516650809
 21
1.4246006429632345
 31
0.0
  0
LINE
  5
80
100
AcDbEntity
100
AcDbLine
  8
0
 62
256
370
-1
  6
ByLayer
 10
-0.0232040516650809
 20
1.4246006429632345
 30
0.0
 11
-0.0232040516650791
 21
2.6746006429632345
 31
0.0
  0
LINE
  5
81
100
AcDbEntity
100
AcDbLine
  8
0
 62
256
370
-1
  6
ByLayer
 10
3.0476975649749249
 20
2.674600642963231
 30
0.0
 11
13.1017959483349209
 21
2.6746006429632327
 31
0.0
  0
LINE
  5
82
100
AcDbEntity
100
AcDbLine
  8
0
 62
256
370
-1
  6
ByLayer
 10
13.1017959483349209
 20
2.6746006429632327
 30
0.0
 11
13.1017959483349209
 21
1.4246006429632292
 31
0.0
  0
LINE
  5
83
100
AcDbEntity
100
AcDbLine
  8
0
 62
256
370
-1
  6
ByLayer
 10
13.1017959483349209
 20
1.4246006429632292
 30
0.0
 11
3.0476975649749214
 21
1.4246006429632327
 31
0.0
  0
LINE
  5
84
100
AcDbEntity
100
AcDbLine
  8
0
 62
256
370
-1
  6
ByLayer
 10
3.0476975649749214
 20
1.4246006429632327
 30
0.0
 11
3.0476975649749249
 21
2.674600642963231
 31
0.0
  0
LINE
  5
85
100
AcDbEntity
100
AcDbLine
  8
0
 62
256
370
-1
  6
ByLayer
 10
3.0476975649749249
 20
2.049600642963231
 30
0.0
 11
6.9346429678549306
 21
2.049600642963231
 31
0.0
  0
LINE
  5
86
100
AcDbEntity
100
AcDbLine
  8
0
 62
256
370
-1
  6
ByLayer
 10
6.9346429678549306
 20
2.049600642963231
 30
0.0
 11
6.9346429678549271
 21
2.674600642963231
 31
0.0
  0
LINE
  5
87
100
AcDbEntity
100
AcDbLine
  8
0
 62
256
370
-1
  6
ByLayer
 10
6.9346429678549271
 20
2.674600642963231
 30
0.0
 11
3.0476975649749249
 21
2.674600642963231
 31
0.0
  0
LINE
  5
88
100
AcDbEntity
100
AcDbLine
  8
0
 62
256
370
-1
  6
ByLayer
 10
3.0476975649749249
 20
2.674600642963231
 30
0.0
 11
3.0476975649749249
 21
2.049600642963231
 31
0.0
  0
LINE
  5
89
100
AcDbEntity
100
AcDbLine
  8
0
 62
256
370
-1
  6
ByLayer
 10
6.9346429678549306
 20
2.049600642963231
 30
0.0
 11
3.0476975649749249
 21
2.049600642963231
 31
0.0
  0
LINE
  5
8A
100
AcDbEntity
100
AcDbLine
  8
0
 62
256
370
-1
  6
ByLayer
 10
3.0476975649749249
 20
2.049600642963231
 30
0.0
 11
3.0476975649749214
 21
1.4246006429632327
 31
0.0
  0
LINE
  5
8B
100
AcDbEntity
100
AcDbLine
  8
0
 62
256
370
-1
  6
ByLayer
 10
3.0476975649749214
 20
1.4246006429632327
 30
0.0
 11
6.9346429678549271
 21
1.424600642963231
 31
0.0
  0
LINE
  5
8C
100
AcDbEntity
100
AcDbLine
  8
0
 62
256
370
-1
  6
ByLayer
 10
6.9346429678549271
 20
1.424600642963231
 30
0.0
 11
6.9346429678549306
 21
2.049600642963231
 31
0.0
  0
MTEXT
  5
8D
100
AcDbEntity
100
AcDbMText
  8
0
 62
256
370
-1
  6
ByLayer
 10
3.928165860654925
 20
2.4553927940032345
 30
0.0
 40
0.125
 41
125.0
 71
9
 72
2
  1
Drawn\~By
  7
standard
 50
0.0
 73
1
 44
1.0
  0
MTEXT
  5
8E
100
AcDbEntity
100
AcDbMText
  8
0
 62
256
370
-1
  6
ByLayer
 10
7.5574132257749334
 20
2.4339179575232333
 30
0.0
 40
0.125
 41
125.0
 71
9
 72
2
  1
Notes
  7
standard
 50
0.0
 73
1
 44
1.0
  0
LINE
  5
8F
100
AcDbEntity
100
AcDbLine
  8
0
 62
256
370
-1
  6
ByLayer
 10
3.0476975649749249
 20
2.049600642963231
 30
0.0
 11
4.991170266414926
 21
2.049600642963231
 31
0.0
  0
LINE
  5
90
100
AcDbEntity
100
AcDbLine
  8
0
 62
256
370
-1
  6
ByLayer
 10
4.991170266414926
 20
2.049600642963231
 30
0.0
 11
4.9911702664149296
 21
1.424600642963231
 31
0.0
  0
LINE
  5
91
100
AcDbEntity
100
AcDbLine
  8
0
 62
256
370
-1
  6
ByLayer
 10
4.9911702664149296
 20
1.424600642963231
 30
0.0
 11
3.0476975649749214
 21
1.4246006429632327
 31
0.0
  0
LINE
  5
92
100
AcDbEntity
100
AcDbLine
  8
0
 62
256
370
-1
  6
ByLayer
 10
3.0476975649749214
 20
1.4246006429632327
 30
0.0
 11
3.0476975649749249
 21
2.049600642963231
 31
0.0
  0
MTEXT
  5
93
100
AcDbEntity
100
AcDbMText
  8
0
 62
256
370
-1
  6
ByLayer
 10
5.4528792507349273
 20
1.854097372563233
 30
0.0
 40
0.125
 41
125.0
 71
9
 72
2
  1
Date
  7
standard
 50
0.0
 73
1
 44
1.0
  0
MTEXT
  5
94
100
AcDbEntity
100
AcDbMText
  8
0
 62
256
370
-1
  6
ByLayer
 10
3.7134174958549266
 20
1.854097372563233
 30
0.0
 40
0.125
 41
125.0
 71
9
 72
2
  1
Version
  7
standard
 50
0.0
 73
1
 44
1.0
  0
MTEXT
  5
95
100
AcDbEntity
100
AcDbMText
  8
border
 62
256
370
-1
  6
ByLayer
 10
6.5394046532847785
 20
2.2268476277372624
 30
0.0
 40
0.2
 41
100.0
 71
9
 72
2
  1
Russell\~Valentine
  7
standard
 50
0.0
 73
1
 44
1.0
  0
LINE
  5
96
100
AcDbEntity
100
AcDbLine
  8
board
 62
256
370
-1
  6
ByLayer
 10
2.2510802919708421
 20
7.9749999999999996
 30
0.0
 11
2.2510802919708421
 21
6.0249999999999995
 31
0.0
  0
MTEXT
  5
97
100
AcDbEntity
100
AcDbMText
  8
0
 62
256
370
-1
  6
ByLayer
 10
4.6870437956205349
 20
1.8544708029197476
 30
0.0
 40
0.125
 41
125.0
 71
9
 72
2
  1
Units
  7
standard
 50
0.0
 73
1
 44
1.0
  0
MTEXT
  5
98
100
AcDbEntity
100
AcDbMText
  8
border
 62
256
370
-1
  6
ByLayer
 10
4.9376534388304476
 20
1.5310243674457202
 30
0.0
 40
0.2
 41
100.0
 71
9
 72
2
  1
Inches
  7
standard
 50
0.0
 73
1
 44
1.0
  0
LINE
  5
99
100
AcDbEntity
100
AcDbLine
  8
border
 62
256
370
-1
  6
ByLayer
 10
3.0476975649749249
 20
2.049600642963231
 30
0.0
 11
4.0194339156949255
 21
2.049600642963231
 31
0.0
  0
LINE
  5
9A
100
AcDbEntity
100
AcDbLine
  8
border
 62
256
370
-1
  6
ByLayer
 10
4.0194339156949255
 20
2.049600642963231
 30
0.0
 11
4.0194339156949255
 21
1.4246006429632319
 31
0.0
  0
LINE
  5
9B
100
AcDbEntity
100
AcDbLine
  8
border
 62
256
370
-1
  6
ByLayer
 10
4.0194339156949255
 20
1.4246006429632319
 30
0.0
 11
3.0476975649749249
 21
1.4246006429632319
 31
0.0
  0
LINE
  5
9C
100
AcDbEntity
100
AcDbLine
  8
border
 62
256
370
-1
  6
ByLayer
 10
3.0476975649749249
 20
1.4246006429632319
 30
0.0
 11
3.0476975649749249
 21
2.049600642963231
 31
0.0
  0
LINE
  5
9D
100
AcDbEntity
100
AcDbLine
  8
standoffs
 62
256
370
-1
  6
ByLayer
 10
12.1771259124088562
 20
5.9778683280287064
 30
0.0
 11
12.1771259124088562
 21
5.8948683280287062
 31
0.0
  0
LINE
  5
9E
100
AcDbEntity
100
AcDbLine
  8
board
 62
256
370
-1
  6
ByLayer
 10
6.2490452056522878
 20
5.6000000000000023
 30
0.0
 11
8.7490452056522869
 21
5.6000000000000014
 31
0.0
  0
LINE
  5
9F
100
AcDbEntity
100
AcDbLine
  8
board
 62
256
370
-1
  6
ByLayer
 10
8.7490452056522905
 20
8.3999999999999986
 30
0.0
 11
6.2490452056522887
 21
8.4000000000000004
 31
0.0
  0
LINE
  5
A0
100
AcDbEntity
100
AcDbLine
  8
board
 62
256
370
-1
  6
ByLayer
 10
6.2490452056522887
 20
8.4000000000000004
 30
0.0
 11
6.2490452056522878
 21
5.6000000000000023
 31
0.0
  0
LINE
  5
A1
100
AcDbEntity
100
AcDbLine
  8
board
 62
256
370
-1
  6
ByLayer
 10
8.7490452056522905
 20
8.3999999999999986
 30
0.0
 11
8.7490452056522869
 21
5.6000000000000014
 31
0.0
  0
CIRCLE
  5
A2
100
AcDbEntity
100
AcDbCircle
  8
board
 62
256
370
-1
  6
ByLayer
 10
7.5
 20
8.0663306093190261
 30
0.0
 40
0.062
  0
CIRCLE
  5
A3
100
AcDbEntity
100
AcDbCircle
  8
board
 62
256
370
-1
  6
ByLayer
 10
7.5
 20
5.9363683280287054
 30
0.0
 40
0.062
  0
LINE
  5
A4
100
AcDbEntity
100
AcDbLine
  8
board
 62
256
370
-1
  6
ByLayer
 10
11.8651259124088586
 20
8.3999999999999968
 30
0.0
 11
11.8651259124088568
 21
5.6000000000000014
 31
0.0
  0
LINE
  5
A5
100
AcDbEntity
100
AcDbLine
  8
board
 62
256
370
-1
  6
ByLayer
 10
11.8651259124088568
 20
5.6000000000000014
 30
0.0
 11
11.927125912408858
 21
5.6000000000000014
 31
0.0
  0
LINE
  5
A6
100
AcDbEntity
100
AcDbLine
  8
board
 62
256
370
-1
  6
ByLayer
 10
11.927125912408858
 20
5.6000000000000014
 30
0.0
 11
11.927125912408858
 21
8.4000000000000004
 31
0.0
  0
LINE
  5
A7
100
AcDbEntity
100
AcDbLine
  8
board
 62
256
370
-1
  6
ByLayer
 10
11.927125912408858
 20
8.4000000000000004
 30
0.0
 11
11.8651259124088586
 21
8.3999999999999968
 31
0.0
  0
LINE
  5
A8
100
AcDbEntity
100
AcDbLine
  8
board
 62
256
370
-1
  6
ByLayer
 10
2.1890802919708428
 20
8.3999999999999986
 30
0.0
 11
2.1890802919708423
 21
5.6000000000000023
 31
0.0
  0
LINE
  5
A9
100
AcDbEntity
100
AcDbLine
  8
board
 62
256
370
-1
  6
ByLayer
 10
2.1890802919708423
 20
5.6000000000000023
 30
0.0
 11
2.2510802919708421
 21
5.6000000000000014
 31
0.0
  0
LINE
  5
AA
100
AcDbEntity
100
AcDbLine
  8
board
 62
256
370
-1
  6
ByLayer
 10
2.2510802919708421
 20
5.6000000000000014
 30
0.0
 11
2.2510802919708426
 21
8.3999999999999986
 31
0.0
  0
LINE
  5
AB
100
AcDbEntity
100
AcDbLine
  8
board
 62
256
370
-1
  6
ByLayer
 10
2.2510802919708426
 20
8.3999999999999986
 30
0.0
 11
2.1890802919708428
 21
8.3999999999999986
 31
0.0
  0
LINE
  5
AC
100
AcDbEntity
100
AcDbLine
  8
board
 62
256
370
-1
  6
ByLayer
 10
6.8090452056522892
 20
8.3000000000000007
 30
0.0
 11
5.9990452056522887
 21
8.2999999999999989
 31
0.0
  0
LINE
  5
AD
100
AcDbEntity
100
AcDbLine
  8
board
 62
256
370
-1
  6
ByLayer
 10
5.9990452056522887
 20
8.2999999999999989
 30
0.0
 11
5.9990452056522878
 21
7.0999999999999996
 31
0.0
  0
LINE
  5
AE
100
AcDbEntity
100
AcDbLine
  8
board
 62
256
370
-1
  6
ByLayer
 10
5.9990452056522878
 20
7.0999999999999996
 30
0.0
 11
6.8090452056522883
 21
7.1000000000000005
 31
0.0
  0
LINE
  5
AF
100
AcDbEntity
100
AcDbLine
  8
board
 62
256
370
-1
  6
ByLayer
 10
6.8090452056522883
 20
7.1000000000000005
 30
0.0
 11
6.8090452056522892
 21
8.3000000000000007
 31
0.0
  0
LINE
  5
B0
100
AcDbEntity
100
AcDbLine
  8
board
 62
256
370
-1
  6
ByLayer
 10
2.2510802919708426
 20
8.3000000000000007
 30
0.0
 11
2.771080291970843
 21
8.3000000000000025
 31
0.0
  0
LINE
  5
B1
100
AcDbEntity
100
AcDbLine
  8
board
 62
256
370
-1
  6
ByLayer
 10
2.771080291970843
 20
8.3000000000000025
 30
0.0
 11
2.7710802919708426
 21
7.1000000000000014
 31
0.0
  0
LINE
  5
B2
100
AcDbEntity
100
AcDbLine
  8
board
 62
256
370
-1
  6
ByLayer
 10
2.7710802919708426
 20
7.1000000000000014
 30
0.0
 11
2.2510802919708421
 21
7.1000000000000005
 31
0.0
  0
LINE
  5
B3
100
AcDbEntity
100
AcDbLine
  8
board
 62
256
370
-1
  6
ByLayer
 10
2.2510802919708421
 20
7.1000000000000005
 30
0.0
 11
2.2510802919708426
 21
8.3000000000000007
 31
0.0
  0
LEADER
  5
B4
  8
dimensions
 62
256
370
-1
  6
ByLayer
100
AcDbEntity
100
AcDbLeader
  3
Standard
 71
1
 72
0
 73
3
 74
0
 75
0
 40
1.0
 41
10.0
 76
3
 10
2.2010802919708428
 20
7.4527742081306689
 10
1.4736377737226452
 20
8.1010406314882211
 10
1.2736377737226452
 20
8.1010406314882211
  0
MTEXT
  5
B5
100
AcDbEntity
100
AcDbMText
  8
dimensions
 62
256
370
-1
  6
ByLayer
 10
1.1654717153285032
 20
8.0675096095905374
 30
0.0
 40
0.1
 41
100.0
 71
9
 72
2
  1
Rectangular\~Cut
  7
standard
 50
0.0
 73
1
 44
1.0
  0
LINE
  5
B6
100
AcDbEntity
100
AcDbLine
  8
board
 62
256
370
-1
  6
ByLayer
 10
8.6090452056522881
 20
5.9700000000000015
 30
0.0
 11
8.6090452056522881
 21
5.6500000000000012
 31
0.0
  0
LINE
  5
B7
100
AcDbEntity
100
AcDbLine
  8
board
 62
256
370
-1
  6
ByLayer
 10
8.6090452056522881
 20
5.6500000000000012
 30
0.0
 11
9.5590452056522874
 21
5.6500000000000012
 31
0.0
  0
LINE
  5
B8
100
AcDbEntity
100
AcDbLine
  8
board
 62
256
370
-1
  6
ByLayer
 10
9.5590452056522874
 20
5.6500000000000012
 30
0.0
 11
9.5590452056522892
 21
5.9700000000000015
 31
0.0
  0
LINE
  5
B9
100
AcDbEntity
100
AcDbLine
  8
board
 62
256
370
-1
  6
ByLayer
 10
9.5590452056522892
 20
5.9700000000000015
 30
0.0
 11
8.6090452056522881
 21
5.9700000000000015
 31
0.0
  0
LINE
  5
BA
100
AcDbEntity
100
AcDbLine
  8
help
 62
256
370
-1
  6
ByLayer
 10
7.7490452056522878
 20
-2.0876291649690355
 30
0.0
 11
7.7490452056522887
 21
17.9123708350309627
 31
0.0
  0
LINE
  5
BB
100
AcDbEntity
100
AcDbLine
  8
help
 62
256
370
-1
  6
ByLayer
 10
7.8803369450105967
 20
8.0499999999999989
 30
0.0
 11
7.8803369450105967
 21
8.1999999999999993
 31
0.0
  0
LINE
  5
BC
100
AcDbEntity
100
AcDbLine
  8
help
 62
256
370
-1
  6
ByLayer
 10
7.7895742566195532
 20
8.0499999999999989
 30
0.0
 11
7.7895742566195532
 21
7.8999999999999986
 31
0.0
  0
LINE
  5
BD
100
AcDbEntity
100
AcDbLine
  8
board
 62
256
370
-1
  6
ByLayer
 10
11.5451259124088601
 20
8.1999999999999993
 30
0.0
 11
11.8651259124088604
 21
8.1999999999999993
 31
0.0
  0
LINE
  5
BE
100
AcDbEntity
100
AcDbLine
  8
board
 62
256
370
-1
  6
ByLayer
 10
11.8651259124088604
 20
8.1999999999999993
 30
0.0
 11
11.8651259124088586
 21
7.8999999999999986
 31
0.0
  0
LINE
  5
BF
100
AcDbEntity
100
AcDbLine
  8
board
 62
256
370
-1
  6
ByLayer
 10
11.8651259124088586
 20
7.8999999999999986
 30
0.0
 11
11.5451259124088601
 21
7.8999999999999986
 31
0.0
  0
LINE
  5
C0
100
AcDbEntity
100
AcDbLine
  8
board
 62
256
370
-1
  6
ByLayer
 10
11.5451259124088601
 20
7.8999999999999986
 30
0.0
 11
11.5451259124088601
 21
8.1999999999999993
 31
0.0
  0
LINE
  5
C1
100
AcDbEntity
100
AcDbLine
  8
help
 62
256
370
-1
  6
ByLayer
 10
1.2000000000000011
 20
8.0500000000000007
 30
0.0
 11
21.2000000000000028
 21
8.0500000000000007
 31
0.0
  0
LINE
  5
C2
100
AcDbEntity
100
AcDbLine
  8
help
 62
256
370
-1
  6
ByLayer
 10
1.4200817922612909
 20
8.3900000000000006
 30
0.0
 11
21.4200817922612927
 21
8.3900000000000006
 31
0.0
  0
CIRCLE
  5
C3
100
AcDbEntity
100
AcDbCircle
  8
standoffs
 62
256
370
-1
  6
ByLayer
 10
6.5427226556016658
 20
7.9539999999999997
 30
0.0
 40
0.0415
  0
CIRCLE
  5
C4
100
AcDbEntity
100
AcDbCircle
  8
standoffs
 62
256
370
-1
  6
ByLayer
 10
6.5427226556016658
 20
7.9539999999999997
 30
0.0
 40
0.095
  0
CIRCLE
  5
C5
100
AcDbEntity
100
AcDbCircle
  8
standoffs
 62
256
370
-1
  6
ByLayer
 10
8.4625739419087207
 20
7.9539999999999997
 30
0.0
 40
0.0415
  0
CIRCLE
  5
C6
100
AcDbEntity
100
AcDbCircle
  8
standoffs
 62
256
370
-1
  6
ByLayer
 10
8.4625739419087207
 20
7.9539999999999997
 30
0.0
 40
0.095
  0
CIRCLE
  5
C7
100
AcDbEntity
100
AcDbCircle
  8
standoffs
 62
256
370
-1
  6
ByLayer
 10
8.4571352697095517
 20
6.0460000000000003
 30
0.0
 40
0.0415
  0
CIRCLE
  5
C8
100
AcDbEntity
100
AcDbCircle
  8
standoffs
 62
256
370
-1
  6
ByLayer
 10
8.4571352697095517
 20
6.0460000000000003
 30
0.0
 40
0.095
  0
CIRCLE
  5
C9
100
AcDbEntity
100
AcDbCircle
  8
standoffs
 62
256
370
-1
  6
ByLayer
 10
6.5427226556016658
 20
6.0460000000000003
 30
0.0
 40
0.0415
  0
CIRCLE
  5
CA
100
AcDbEntity
100
AcDbCircle
  8
standoffs
 62
256
370
-1
  6
ByLayer
 10
6.5427226556016658
 20
6.0460000000000003
 30
0.0
 40
0.095
  0
LEADER
  5
CB
  8
dimensions
 62
256
370
-1
  6
ByLayer
100
AcDbEntity
100
AcDbLeader
  3
Standard
 71
1
 72
0
 73
3
 74
0
 75
0
 40
1.0
 41
10.0
 76
3
 10
6.4666049734844062
 20
5.9601256317998788
 10
5.7230994750187314
 20
5.0398743682001221
 10
5.3417126137048578
 20
5.0398743682001221
  0
LINE
  5
CC
100
AcDbEntity
100
AcDbLine
  8
help
 62
256
370
-1
  6
ByLayer
 10
-1.5428647302904483
 20
6.0460000000000003
 30
0.0
 11
18.4571352697095534
 21
6.0460000000000003
 31
0.0
  0
LINE
  5
CD
100
AcDbEntity
100
AcDbLine
  8
help
 62
256
370
-1
  6
ByLayer
 10
-1.5374260580912793
 20
7.9539999999999997
 30
0.0
 11
18.4625739419087225
 21
7.9539999999999997
 31
0.0
  0
LINE
  5
CE
100
AcDbEntity
100
AcDbLine
  8
standoffs
 62
256
370
-1
  6
ByLayer
 10
12.1788379684647854
 20
5.9510000000000005
 30
0.0
 11
11.9288379684647854
 21
5.9510000000000005
 31
0.0
  0
LINE
  5
CF
100
AcDbEntity
100
AcDbLine
  8
standoffs
 62
256
370
-1
  6
ByLayer
 10
11.9288379684647854
 20
5.9510000000000005
 30
0.0
 11
11.9288379684647854
 21
6.1410000000000009
 31
0.0
  0
LINE
  5
D0
100
AcDbEntity
100
AcDbLine
  8
standoffs
 62
256
370
-1
  6
ByLayer
 10
11.9288379684647854
 20
6.1410000000000009
 30
0.0
 11
12.1788379684647854
 21
6.1410000000000009
 31
0.0
  0
LINE
  5
D1
100
AcDbEntity
100
AcDbLine
  8
standoffs
 62
256
370
-1
  6
ByLayer
 10
12.1788379684647854
 20
6.1410000000000009
 30
0.0
 11
12.1788379684647854
 21
5.9510000000000005
 31
0.0
  0
LINE
  5
D2
100
AcDbEntity
100
AcDbLine
  8
standoffs
 62
256
370
-1
  6
ByLayer
 10
12.1788379684647854
 20
6.0045000000000002
 30
0.0
 11
11.9288379684647872
 21
6.0045000000000002
 31
0.0
  0
LINE
  5
D3
100
AcDbEntity
100
AcDbLine
  8
standoffs
 62
256
370
-1
  6
ByLayer
 10
11.9288379684647872
 20
6.0045000000000002
 30
0.0
 11
11.9288379684647872
 21
6.0875000000000004
 31
0.0
  0
LINE
  5
D4
100
AcDbEntity
100
AcDbLine
  8
standoffs
 62
256
370
-1
  6
ByLayer
 10
11.9288379684647872
 20
6.0875000000000004
 30
0.0
 11
12.1788379684647854
 21
6.0875000000000004
 31
0.0
  0
LINE
  5
D5
100
AcDbEntity
100
AcDbLine
  8
standoffs
 62
256
370
-1
  6
ByLayer
 10
12.1788379684647854
 20
7.859
 30
0.0
 11
11.9288379684647854
 21
7.859
 31
0.0
  0
LINE
  5
D6
100
AcDbEntity
100
AcDbLine
  8
standoffs
 62
256
370
-1
  6
ByLayer
 10
11.9288379684647854
 20
7.859
 30
0.0
 11
11.9288379684647854
 21
8.0490000000000013
 31
0.0
  0
LINE
  5
D7
100
AcDbEntity
100
AcDbLine
  8
standoffs
 62
256
370
-1
  6
ByLayer
 10
11.9288379684647854
 20
8.0490000000000013
 30
0.0
 11
12.1788379684647854
 21
8.0490000000000013
 31
0.0
  0
LINE
  5
D8
100
AcDbEntity
100
AcDbLine
  8
standoffs
 62
256
370
-1
  6
ByLayer
 10
12.1788379684647854
 20
8.0490000000000013
 30
0.0
 11
12.1788379684647854
 21
7.859
 31
0.0
  0
LINE
  5
D9
100
AcDbEntity
100
AcDbLine
  8
standoffs
 62
256
370
-1
  6
ByLayer
 10
12.1788379684647854
 20
7.9124999999999988
 30
0.0
 11
11.9288379684647854
 21
7.9124999999999988
 31
0.0
  0
LINE
  5
DA
100
AcDbEntity
100
AcDbLine
  8
standoffs
 62
256
370
-1
  6
ByLayer
 10
11.9288379684647854
 20
7.9124999999999988
 30
0.0
 11
11.9288379684647854
 21
7.9955000000000007
 31
0.0
  0
LINE
  5
DB
100
AcDbEntity
100
AcDbLine
  8
standoffs
 62
256
370
-1
  6
ByLayer
 10
11.9288379684647854
 20
7.9955000000000007
 30
0.0
 11
12.1788379684647854
 21
7.9955000000000007
 31
0.0
  0
LINE
  5
DC
100
AcDbEntity
100
AcDbLine
  8
standoffs
 62
256
370
-1
  6
ByLayer
 10
12.1788379684647854
 20
7.9955000000000007
 30
0.0
 11
12.1788379684647854
 21
7.9124999999999988
 31
0.0
  0
LINE
  5
DD
100
AcDbEntity
100
AcDbLine
  8
standoffs
 62
256
370
-1
  6
ByLayer
 10
1.9369407309012623
 20
6.1410000000000009
 30
0.0
 11
2.1869407309012621
 21
6.1410000000000009
 31
0.0
  0
LINE
  5
DE
100
AcDbEntity
100
AcDbLine
  8
standoffs
 62
256
370
-1
  6
ByLayer
 10
2.1869407309012621
 20
6.1410000000000009
 30
0.0
 11
2.1869407309012621
 21
5.9510000000000005
 31
0.0
  0
LINE
  5
DF
100
AcDbEntity
100
AcDbLine
  8
standoffs
 62
256
370
-1
  6
ByLayer
 10
2.1869407309012621
 20
5.9510000000000005
 30
0.0
 11
1.9369407309012623
 21
5.9510000000000005
 31
0.0
  0
LINE
  5
E0
100
AcDbEntity
100
AcDbLine
  8
standoffs
 62
256
370
-1
  6
ByLayer
 10
1.9369407309012623
 20
6.0875000000000012
 30
0.0
 11
2.1869407309012621
 21
6.0875000000000012
 31
0.0
  0
LINE
  5
E1
100
AcDbEntity
100
AcDbLine
  8
standoffs
 62
256
370
-1
  6
ByLayer
 10
2.1869407309012621
 20
6.0875000000000012
 30
0.0
 11
2.1869407309012621
 21
6.0045000000000011
 31
0.0
  0
LINE
  5
E2
100
AcDbEntity
100
AcDbLine
  8
standoffs
 62
256
370
-1
  6
ByLayer
 10
2.1869407309012621
 20
6.0045000000000011
 30
0.0
 11
1.9369407309012623
 21
6.0045000000000011
 31
0.0
  0
LINE
  5
E3
100
AcDbEntity
100
AcDbLine
  8
standoffs
 62
256
370
-1
  6
ByLayer
 10
1.9369407309012623
 20
5.9510000000000005
 30
0.0
 11
1.9369407309012623
 21
6.1410000000000009
 31
0.0
  0
LINE
  5
E4
100
AcDbEntity
100
AcDbLine
  8
standoffs
 62
256
370
-1
  6
ByLayer
 10
1.9356041228215994
 20
8.0479674845790505
 30
0.0
 11
2.1856041228215992
 21
8.0479674845790505
 31
0.0
  0
LINE
  5
E5
100
AcDbEntity
100
AcDbLine
  8
standoffs
 62
256
370
-1
  6
ByLayer
 10
2.1856041228215992
 20
8.0479674845790505
 30
0.0
 11
2.1856041228215992
 21
7.8579674845790519
 31
0.0
  0
LINE
  5
E6
100
AcDbEntity
100
AcDbLine
  8
standoffs
 62
256
370
-1
  6
ByLayer
 10
2.1856041228215992
 20
7.8579674845790519
 30
0.0
 11
1.9356041228215994
 21
7.8579674845790519
 31
0.0
  0
LINE
  5
E7
100
AcDbEntity
100
AcDbLine
  8
standoffs
 62
256
370
-1
  6
ByLayer
 10
1.9356041228215994
 20
7.9944674845790518
 30
0.0
 11
2.1856041228215992
 21
7.9944674845790518
 31
0.0
  0
LINE
  5
E8
100
AcDbEntity
100
AcDbLine
  8
standoffs
 62
256
370
-1
  6
ByLayer
 10
2.1856041228215992
 20
7.9944674845790518
 30
0.0
 11
2.1856041228215992
 21
7.9114674845790534
 31
0.0
  0
LINE
  5
E9
100
AcDbEntity
100
AcDbLine
  8
standoffs
 62
256
370
-1
  6
ByLayer
 10
2.1856041228215992
 20
7.9114674845790534
 30
0.0
 11
1.9356041228215994
 21
7.9114674845790534
 31
0.0
  0
LINE
  5
EA
100
AcDbEntity
100
AcDbLine
  8
standoffs
 62
256
370
-1
  6
ByLayer
 10
1.9356041228215994
 20
7.9114674845790534
 30
0.0
 11
1.9356041228215994
 21
7.9944674845790518
 31
0.0
  0
LINE
  5
EB
100
AcDbEntity
100
AcDbLine
  8
standoffs
 62
256
370
-1
  6
ByLayer
 10
1.9356041228215994
 20
7.8600325154209472
 30
0.0
 11
1.9356041228215994
 21
8.0500325154209484
 31
0.0
  0
LINE
  5
EC
100
AcDbEntity
100
AcDbLine
  8
help
 62
256
370
-1
  6
ByLayer
 10
2.2010802919708428
 20
-2.0460000000000003
 30
0.0
 11
2.2010802919708441
 21
17.9540000000000006
 31
0.0
  0
LINE
  5
ED
100
AcDbEntity
100
AcDbLine
  8
help
 62
256
370
-1
  6
ByLayer
 10
2.483863348049872
 20
7.9539999999999997
 30
0.0
 11
2.483863348049872
 21
7.9039999999999999
 31
0.0
  0
LINE
  5
EE
100
AcDbEntity
100
AcDbLine
  8
help
 62
256
370
-1
  6
ByLayer
 10
-2.516136651950128
 20
7.9039999999999999
 30
0.0
 11
7.483863348049872
 21
7.9039999999999999
 31
0.0
  0
LINE
  5
EF
100
AcDbEntity
100
AcDbLine
  8
help
 62
256
370
-1
  6
ByLayer
 10
1.8404425182481974
 20
6.3479502074692391
 30
0.0
 11
3.3254425182481975
 21
6.3479502074692391
 31
0.0
  0
LINE
  5
F0
100
AcDbEntity
100
AcDbLine
  8
contour_trans
 62
256
370
-1
  6
ByLayer
 10
1.9354425182481976
 20
8.4499999999999993
 30
0.0
 11
3.3254425182481975
 21
8.4499999999999993
 31
0.0
  0
LINE
  5
F1
100
AcDbEntity
100
AcDbLine
  8
contour_trans
 62
256
370
-1
  6
ByLayer
 10
12.1771259124088562
 20
5.5500000000000007
 30
0.0
 11
10.8149999124088563
 21
5.5500000000000007
 31
0.0
  0
LINE
  5
F2
100
AcDbEntity
100
AcDbLine
  8
contour_trans
 62
256
370
-1
  6
ByLayer
 10
12.1771259124088562
 20
8.4500000000000011
 30
0.0
 11
10.8149999124088563
 21
8.4499999999999993
 31
0.0
  0
LINE
  5
F3
100
AcDbEntity
100
AcDbLine
  8
center
 62
256
370
-1
  6
ByLayer
 10
12.3875456204380541
 20
7.0
 30
0.0
 11
10.6618083065694318
 21
7.0
 31
0.0
  0
LINE
  5
F4
100
AcDbEntity
100
AcDbLine
  8
center
 62
256
370
-1
  6
ByLayer
 10
1.7250228102190004
 20
7.0
 30
0.0
 11
3.4507601240876218
 21
7.0
 31
0.0
  0
LINE
  5
F5
100
AcDbEntity
100
AcDbLine
  8
contour
 62
256
370
-1
  6
ByLayer
 10
10.8149999124088563
 20
5.484
 30
0.0
 11
12.1471259124088569
 21
5.484
 31
0.0
  0
LINE
  5
F6
100
AcDbEntity
100
AcDbLine
  8
contour
 62
256
370
-1
  6
ByLayer
 10
10.8150000000000013
 20
8.5159999999999982
 30
0.0
 11
12.1471259124088569
 21
8.5160000000000018
 31
0.0
  0
LINE
  5
F7
100
AcDbEntity
100
AcDbLine
  8
contour
 62
256
370
-1
  6
ByLayer
 10
10.8150000000000013
 20
5.484
 30
0.0
 11
10.8150000000000013
 21
8.516
 31
0.0
  0
LINE
  5
F8
100
AcDbEntity
100
AcDbLine
  8
contour
 62
256
370
-1
  6
ByLayer
 10
3.3254425182481975
 20
8.516
 30
0.0
 11
1.9654425182481976
 21
8.516
 31
0.0
  0
LINE
  5
F9
100
AcDbEntity
100
AcDbLine
  8
contour_trans
 62
256
370
-1
  6
ByLayer
 10
1.9354425182481976
 20
5.5499999999999989
 30
0.0
 11
3.3254425182481975
 21
5.5499999999999989
 31
0.0
  0
LINE
  5
FA
100
AcDbEntity
100
AcDbLine
  8
contour
 62
256
370
-1
  6
ByLayer
 10
3.3254425182481975
 20
5.4840000000000018
 30
0.0
 11
1.9654425182481976
 21
5.4839999999999991
 31
0.0
  0
LINE
  5
FB
100
AcDbEntity
100
AcDbLine
  8
contour
 62
256
370
-1
  6
ByLayer
 10
3.3254425182481975
 20
5.4840000000000018
 30
0.0
 11
3.3254425182481975
 21
8.5160000000000018
 31
0.0
  0
LINE
  5
FC
100
AcDbEntity
100
AcDbLine
  8
help
 62
256
370
-1
  6
ByLayer
 10
2.3609611615245023
 20
7.0
 30
0.0
 11
2.3609611615245023
 21
6.5499999999999998
 31
0.0
  0
LINE
  5
FD
100
AcDbEntity
100
AcDbLine
  8
help
 62
256
370
-1
  6
ByLayer
 10
2.5334243194192396
 20
7.0
 30
0.0
 11
2.5334243194192396
 21
7.8499999999999996
 31
0.0
  0
LINE
  5
FE
100
AcDbEntity
100
AcDbLine
  8
help
 62
256
370
-1
  6
ByLayer
 10
-5.1390388384754981
 20
6.5499999999999998
 30
0.0
 11
9.8609611615245019
 21
6.5499999999999998
 31
0.0
  0
LINE
  5
FF
100
AcDbEntity
100
AcDbLine
  8
help
 62
256
370
-1
  6
ByLayer
 10
-4.9665756805807604
 20
7.8499999999999996
 30
0.0
 11
10.0334243194192396
 21
7.8499999999999996
 31
0.0
  0
LINE
  5
100
100
AcDbEntity
100
AcDbLine
  8
cuts
 62
256
370
-1
  6
ByLayer
 10
5.987000000000001
 20
6.5499999999999998
 30
0.0
 11
6.0529999999999999
 21
6.5499999999999998
 31
0.0
  0
LINE
  5
101
100
AcDbEntity
100
AcDbLine
  8
cuts
 62
256
370
-1
  6
ByLayer
 10
5.987000000000001
 20
7.8499999999999996
 30
0.0
 11
6.0530000000000008
 21
7.8499999999999996
 31
0.0
  0
DIMENSION
  5
102
100
AcDbEntity
  8
dimensions
 62
256
370
-1
  6
ByLayer
100
AcDbDimension
 10
2.2010802919708441
 20
9.2000000000000011
 30
0.0
 11
2.0207614051095208
 21
9.2750000000000004
 31
0.0
 70
0
 71
5
 72
1
 41
1.0
 42
0.0
  1

  3
Standard
100
AcDbAlignedDimension
 13
1.8404425182481976
 23
9.0
 33
0.0
 14
2.2010802919708441
 24
7.8499999999999996
 34
0.0
 50
0.0
100
AcDbRotatedDimension
  0
LINE
  5
103
100
AcDbEntity
100
AcDbLine
  8
dimensions
 62
256
370
-1
  6
ByLayer
 10
3.6000000000000001
 20
6.5499999999999998
 30
0.0
 11
3.6000000000000001
 21
7.0
 31
0.0
  0
SOLID
  5
104
100
AcDbEntity
100
AcDbTrace
  8
dimensions
 62
256
370
-1
  6
ByLayer
 10
3.6000000000000001
 20
6.5499999999999998
 30
0.0
 11
3.5833486136890866
 21
6.6499999999999995
 31
0.0
 12
3.6166513863109135
 22
6.6499999999999995
 32
0.0
 13
3.6166513863109135
 23
6.6499999999999995
 33
0.0
 39
0.0
  0
SOLID
  5
105
100
AcDbEntity
100
AcDbTrace
  8
dimensions
 62
256
370
-1
  6
ByLayer
 10
3.6000000000000001
 20
7.0
 30
0.0
 11
3.6166513863109135
 21
6.9000000000000004
 31
0.0
 12
3.5833486136890866
 22
6.9000000000000004
 32
0.0
 13
3.5833486136890866
 23
6.9000000000000004
 33
0.0
 39
0.0
  0
LINE
  5
106
100
AcDbEntity
100
AcDbLine
  8
dimensions
 62
256
370
-1
  6
ByLayer
 10
2.847823189776014
 20
6.5499999999999998
 30
0.0
 11
3.6499999999999999
 21
6.5499999999999998
 31
0.0
  0
LINE
  5
107
100
AcDbEntity
100
AcDbLine
  8
dimensions
 62
256
370
-1
  6
ByLayer
 10
3.4757601240876217
 20
7.0
 30
0.0
 11
3.6499999999999999
 21
7.0
 31
0.0
  0
LINE
  5
108
100
AcDbEntity
100
AcDbLine
  8
dimensions
 62
256
370
-1
  6
ByLayer
 10
4.0
 20
7.8499999999999996
 30
0.0
 11
4.0
 21
6.5499999999999998
 31
0.0
  0
SOLID
  5
109
100
AcDbEntity
100
AcDbTrace
  8
dimensions
 62
256
370
-1
  6
ByLayer
 10
4.0
 20
7.8499999999999996
 30
0.0
 11
4.0166513863109135
 21
7.75
 31
0.0
 12
3.9833486136890865
 22
7.75
 32
0.0
 13
3.9833486136890865
 23
7.75
 33
0.0
 39
0.0
  0
SOLID
  5
10A
100
AcDbEntity
100
AcDbTrace
  8
dimensions
 62
256
370
-1
  6
ByLayer
 10
4.0
 20
6.5499999999999998
 30
0.0
 11
3.9833486136890865
 21
6.6499999999999995
 31
0.0
 12
4.0166513863109135
 22
6.6499999999999995
 32
0.0
 13
4.0166513863109135
 23
6.6499999999999995
 33
0.0
 39
0.0
  0
LINE
  5
10B
100
AcDbEntity
100
AcDbLine
  8
dimensions
 62
256
370
-1
  6
ByLayer
 10
2.847823189776014
 20
7.8499999999999996
 30
0.0
 11
4.0499999999999998
 21
7.8499999999999996
 31
0.0
  0
LINE
  5
10C
100
AcDbEntity
100
AcDbLine
  8
dimensions
 62
256
370
-1
  6
ByLayer
 10
2.847823189776014
 20
6.5499999999999998
 30
0.0
 11
4.0499999999999998
 21
6.5499999999999998
 31
0.0
  0
MTEXT
  5
10D
100
AcDbEntity
100
AcDbMText
  8
dimensions
 62
256
370
-1
  6
ByLayer
 10
4.0796221415608001
 20
7.1940529945553529
 30
0.0
 40
0.1
 41
30.0
 71
5
 72
2
  1
1.3
  7
standard
 50
270.0
 73
1
 44
1.0
  0
MTEXT
  5
10E
100
AcDbEntity
100
AcDbMText
  8
dimensions
 62
256
370
-1
  6
ByLayer
 10
3.703027142569109
 20
6.774422101230166
 30
0.0
 40
0.1
 41
30.0
 71
5
 72
2
  1
0.45
  7
standard
 50
270.0
 73
1
 44
1.0
  0
MTEXT
  5
10F
100
AcDbEntity
100
AcDbMText
  8
border
 62
256
370
-1
  6
ByLayer
 10
3.8420962591241663
 20
1.5289974908759438
 30
0.0
 40
0.2
 41
100.0
 71
9
 72
2
  1
2.03
  7
standard
 50
0.0
 73
1
 44
1.0
  0
MTEXT
  5
110
100
AcDbEntity
100
AcDbMText
  8
dimensions
 62
256
370
-1
  6
ByLayer
 10
5.3417126137048578
 20
5.0398743682001221
 30
0.0
 40
0.1
 41
100.0
 71
9
 72
2
  1
Keep\~Default\~bosses
  7
standard
 50
0.0
 73
1
 44
1.0
  0
MTEXT
  5
111
100
AcDbEntity
100
AcDbMText
  8
dimensions
 62
256
370
-1
  6
ByLayer
 10
10.6000000000000014
 20
5.2000000000000002
 30
0.0
 40
0.1
 41
100.0
 71
9
 72
2
  1
\U+00f8\~0.27
  7
standard
 50
0.0
 73
1
 44
1.0
  0
LINE
  5
112
100
AcDbEntity
100
AcDbLine
  8
help
 62
256
370
-1
  6
ByLayer
 10
11.7071259124088574
 20
6.3274999999999997
 30
0.0
 11
7.7071259124088574
 21
6.3274999999999997
 31
0.0
  0
LINE
  5
113
100
AcDbEntity
100
AcDbLine
  8
help
 62
256
370
-1
  6
ByLayer
 10
11.7071259124088574
 20
6.0524999999999993
 30
0.0
 11
7.7071259124088574
 21
6.0524999999999993
 31
0.0
  0
LINE
  5
114
100
AcDbEntity
100
AcDbLine
  8
cuts
 62
256
370
-1
  6
ByLayer
 10
8.947000000000001
 20
5.5518400971627351
 30
0.0
 11
8.947000000000001
 21
5.5518400971627351
 31
0.0
  0
LINE
  5
115
100
AcDbEntity
100
AcDbLine
  8
cuts
 62
256
370
-1
  6
ByLayer
 10
8.947000000000001
 20
5.5518400971627351
 30
0.0
 11
8.947000000000001
 21
6.0524999999999993
 31
0.0
  0
LINE
  5
116
100
AcDbEntity
100
AcDbLine
  8
cuts
 62
256
370
-1
  6
ByLayer
 10
8.947000000000001
 20
6.0524999999999993
 30
0.0
 11
9.013000000000007
 21
6.0524999999999993
 31
0.0
  0
LINE
  5
117
100
AcDbEntity
100
AcDbLine
  8
cuts
 62
256
370
-1
  6
ByLayer
 10
8.947000000000001
 20
6.3274999999999997
 30
0.0
 11
9.013000000000007
 21
6.3274999999999997
 31
0.0
  0
LINE
  5
118
100
AcDbEntity
100
AcDbLine
  8
help
 62
256
370
-1
  6
ByLayer
 10
11.4004094373869798
 20
7.0
 30
0.0
 11
11.4004094373869798
 21
7.6500000000000004
 31
0.0
  0
MTEXT
  5
119
100
AcDbEntity
100
AcDbMText
  8
border
 62
256
370
-1
  6
ByLayer
 10
12.1222779805354737
 20
1.7433064679643437
 30
0.0
 40
0.2
 41
100.0
 71
9
 72
2
  1
Unit\~enclosure\~modifications\~to\~\PPolycase\~BX-3315BMB\~\Ptolerance\~%%p0.02
  7
standard
 50
0.0
 73
1
 44
1.0
  0
LINE
  5
11A
100
AcDbEntity
100
AcDbLine
  8
help
 62
256
370
-1
  6
ByLayer
 10
2.2010802919708441
 20
8.7160798548097826
 30
0.0
 11
2.8010802919708442
 21
8.7160798548097826
 31
0.0
  0
LINE
  5
11B
100
AcDbEntity
100
AcDbLine
  8
help
 62
256
370
-1
  6
ByLayer
 10
2.8010802919708442
 20
5.2160798548097826
 30
0.0
 11
2.8010802919708446
 21
12.2160798548097826
 31
0.0
  0
LINE
  5
11C
100
AcDbEntity
100
AcDbLine
  8
cuts
 62
256
370
-1
  6
ByLayer
 10
2.2010802919708441
 20
7.8499999999999996
 30
0.0
 11
2.8010802919708437
 21
7.8499999999999996
 31
0.0
  0
LINE
  5
11D
100
AcDbEntity
100
AcDbLine
  8
cuts
 62
256
370
-1
  6
ByLayer
 10
2.8010802919708437
 20
7.8499999999999996
 30
0.0
 11
2.8010802919708437
 21
6.5499999999999998
 31
0.0
  0
LINE
  5
11E
100
AcDbEntity
100
AcDbLine
  8
cuts
 62
256
370
-1
  6
ByLayer
 10
2.8010802919708437
 20
6.5499999999999998
 30
0.0
 11
2.2010802919708441
 21
6.5499999999999998
 31
0.0
  0
LINE
  5
11F
100
AcDbEntity
100
AcDbLine
  8
cuts
 62
256
370
-1
  6
ByLayer
 10
2.2010802919708441
 20
6.5499999999999998
 30
0.0
 11
2.2010802919708441
 21
7.8499999999999996
 31
0.0
  0
DIMENSION
  5
120
100
AcDbEntity
  8
dimensions
 62
256
370
-1
  6
ByLayer
100
AcDbDimension
 10
2.8010802919708437
 20
9.2000000000000011
 30
0.0
 11
2.5010802919708439
 21
9.2750000000000004
 31
0.0
 70
0
 71
5
 72
1
 41
1.0
 42
0.0
  1

  3
Standard
100
AcDbAlignedDimension
 13
2.2010802919708441
 23
7.8499999999999996
 33
0.0
 14
2.8010802919708437
 24
7.8499999999999996
 34
0.0
 50
0.0
100
AcDbRotatedDimension
  0
LINE
  5
121
100
AcDbEntity
100
AcDbLine
  8
help
 62
256
370
-1
  6
ByLayer
 10
10.8000000000000007
 20
7.9000000000000004
 30
0.0
 11
11.5500000000000007
 21
7.9000000000000004
 31
0.0
  0
LINE
  5
122
100
AcDbEntity
100
AcDbLine
  8
help
 62
256
370
-1
  6
ByLayer
 10
11.5500000000000007
 20
7.5250000000000004
 30
0.0
 11
11.5500000000000007
 21
8.2750000000000004
 31
0.0
  0
LINE
  5
123
100
AcDbEntity
100
AcDbLine
  8
help
 62
256
370
-1
  6
ByLayer
 10
11.0254094373869798
 20
7.6500000000000004
 30
0.0
 11
11.7754094373869798
 21
7.6500000000000004
 31
0.0
  0
CIRCLE
  5
124
100
AcDbEntity
100
AcDbCircle
  8
cuts
 62
256
370
-1
  6
ByLayer
 10
11.5500000000000007
 20
7.6500000000000004
 30
0.0
 40
0.15625
  0
LINE
  5
125
100
AcDbEntity
100
AcDbLine
  8
help
 62
256
370
-1
  6
ByLayer
 10
11.5500000000000007
 20
7.8062500000000004
 30
0.0
 11
8.5500000000000007
 21
7.8062500000000004
 31
0.0
  0
LINE
  5
126
100
AcDbEntity
100
AcDbLine
  8
help
 62
256
370
-1
  6
ByLayer
 10
11.5500000000000007
 20
7.4937500000000004
 30
0.0
 11
8.5500000000000007
 21
7.4937500000000004
 31
0.0
  0
LINE
  5
127
100
AcDbEntity
100
AcDbLine
  8
cuts
 62
256
370
-1
  6
ByLayer
 10
8.947000000000001
 20
7.8062500000000004
 30
0.0
 11
9.0130000000000035
 21
7.8062500000000004
 31
0.0
  0
LINE
  5
128
100
AcDbEntity
100
AcDbLine
  8
cuts
 62
256
370
-1
  6
ByLayer
 10
8.947000000000001
 20
7.4937500000000004
 30
0.0
 11
9.0130000000000035
 21
7.4937500000000004
 31
0.0
  0
LEADER
  5
129
  8
dimensions
 62
256
370
-1
  6
ByLayer
100
AcDbEntity
100
AcDbLeader
  3
Standard
 71
1
 72
0
 73
3
 74
0
 75
0
 40
1.0
 41
10.0
 76
3
 10
11.4339137404779034
 20
7.754585098604764
 10
10.7000000000000011
 20
8.2000000000000011
 10
10.5999999999999996
 20
8.2000000000000011
  0
MTEXT
  5
12A
100
AcDbEntity
100
AcDbMText
  8
dimensions
 62
256
370
-1
  6
ByLayer
 10
10.5
 20
8.2000000000000011
 30
0.0
 40
0.1
 41
100.0
 71
9
 72
2
  1
\U+00f8\~5/16
  7
standard
 50
0.0
 73
1
 44
1.0
  0
DIMENSION
  5
12B
100
AcDbEntity
  8
dimensions
 62
256
370
-1
  6
ByLayer
100
AcDbDimension
 10
10.4000000000000004
 20
7.6500000000000004
 30
0.0
 11
10.3250000000000011
 21
7.3250000000000002
 31
0.0
 70
0
 71
5
 72
1
 41
1.0
 42
0.0
  1

  3
Standard
100
AcDbAlignedDimension
 13
10.6618083065694318
 23
7.0
 33
0.0
 14
11.5500000000000007
 24
7.6500000000000004
 34
0.0
 50
90.0
100
AcDbRotatedDimension
  0
DIMENSION
  5
12C
100
AcDbEntity
  8
dimensions
 62
256
370
-1
  6
ByLayer
100
AcDbDimension
 10
11.5250000000000004
 20
9.1000000000000014
 30
0.0
 11
11.8985629562044295
 21
9.1750000000000007
 31
0.0
 70
0
 71
5
 72
1
 41
1.0
 42
0.0
  1

  3
Standard
100
AcDbAlignedDimension
 13
12.2721259124088569
 23
9.0
 33
0.0
 14
11.5250000000000004
 24
7.6500000000000004
 34
0.0
 50
0.0
100
AcDbRotatedDimension
  0
LINE
  5
12D
100
AcDbEntity
100
AcDbLine
  8
help
 62
256
370
-1
  6
ByLayer
 10
11.0163280377495791
 20
7.0
 30
0.0
 11
11.0163280377495791
 21
6.1200000000000001
 31
0.0
  0
LINE
  5
12E
100
AcDbEntity
100
AcDbLine
  8
help
 62
256
370
-1
  6
ByLayer
 10
12.2721259124088569
 20
6.5495084602541027
 30
0.0
 11
11.7721259124088569
 21
6.5495084602541027
 31
0.0
  0
LINE
  5
12F
100
AcDbEntity
100
AcDbLine
  8
help
 62
256
370
-1
  6
ByLayer
 10
11.7721259124088569
 20
6.5495084602541027
 30
0.0
 11
11.7721259124088569
 21
3.5495084602541027
 31
0.0
  0
LINE
  5
130
100
AcDbEntity
100
AcDbLine
  8
help
 62
256
370
-1
  6
ByLayer
 10
11.0163280377495791
 20
6.1200000000000001
 30
0.0
 11
14.0163280377495791
 21
6.1200000000000001
 31
0.0
  0
CIRCLE
  5
131
100
AcDbEntity
100
AcDbCircle
  8
cuts
 62
256
370
-1
  6
ByLayer
 10
11.7721259124088569
 20
6.1200000000000001
 30
0.0
 40
0.135
  0
DIMENSION
  5
132
100
AcDbEntity
  8
dimensions
 62
256
370
-1
  6
ByLayer
100
AcDbDimension
 10
10.4058322468239961
 20
7.0
 30
0.0
 11
10.3308322468239968
 21
6.5600000000000005
 31
0.0
 70
0
 71
5
 72
0
 41
1.0
 42
0.0
  1

  3
Standard
100
AcDbAlignedDimension
 13
11.7721259124088569
 23
6.1200000000000001
 33
0.0
 14
10.6005372050817108
 24
7.0
 34
0.0
 50
90.0
100
AcDbRotatedDimension
  0
DIMENSION
  5
133
100
AcDbEntity
  8
dimensions
 62
256
370
-1
  6
ByLayer
100
AcDbDimension
 10
11.7721259124088569
 20
4.6000000000000005
 30
0.0
 11
12.0221259124088569
 21
4.6750000000000007
 31
0.0
 70
0
 71
5
 72
0
 41
1.0
 42
0.0
  1

  3
Standard
100
AcDbAlignedDimension
 13
12.2721259124088569
 23
5.0
 33
0.0
 14
11.7721259124088569
 24
6.1200000000000001
 34
0.0
 50
0.0
100
AcDbRotatedDimension
  0
LEADER
  5
134
  8
dimensions
 62
256
370
-1
  6
ByLayer
100
AcDbEntity
100
AcDbLeader
  3
Standard
 71
1
 72
0
 73
3
 74
0
 75
0
 40
1.0
 41
10.0
 76
3
 10
11.6845062553838464
 20
6.0172975379904674
 10
11.0
 20
5.2000000000000002
 10
10.7000000000000011
 20
5.2000000000000002
  0
MTEXT
  5
135
100
AcDbEntity
100
AcDbMText
  8
border
 62
256
370
-1
  6
ByLayer
 10
6.7746350364964609
 20
1.5525205291971056
 30
0.0
 40
0.2
 41
100.0
 71
9
 72
2
  1
2011-05-11
  7
standard
 50
0.0
 73
1
 44
1.0
  0
ENDSEC
  0
SECTION
  2
OBJECTS
  0
DICTIONARY
  5
C
100
AcDbDictionary
280
0
281
1
  3
ACAD_GROUP
350
D
  3
ACAD_LAYOUT
350
1A
  3
ACAD_MLINESTYLE
350
17
  3
ACAD_PLOTSETTINGS
350
19
  3
ACAD_PLOTSTYLENAME
350
E
  3
AcDbVariableDictionary
350
136
  0
DICTIONARY
  5
D
100
AcDbDictionary
280
0
281
1
  0
ACDBDICTIONARYWDFLT
  5
E
100
AcDbDictionary
281
1
  3
Normal
350
F
100
AcDbDictionaryWithDefault
340
F
  0
ACDBPLACEHOLDER
  5
F
  0
DICTIONARY
  5
17
100
AcDbDictionary
280
0
281
1
  3
Standard
350
18
  0
MLINESTYLE
  5
18
100
AcDbMlineStyle
  2
STANDARD
 70
0
  3

 62
256
 51
90.0
 52
90.0
 71
2
 49
0.5
 62
256
  6
BYLAYER
 49
-0.5
 62
256
  6
BYLAYER
  0
DICTIONARY
  5
19
100
AcDbDictionary
280
0
281
1
  0
DICTIONARY
  5
1A
100
AcDbDictionary
281
1
  3
Layout1
350
1E
  3
Layout2
350
26
  3
Model
350
22
  0
LAYOUT
  5
1E
100
AcDbPlotSettings
  1

  2
C:\Program Files\AutoCAD 2002\plotters\DWF ePlot (optimized for plotting).pc3
  4

  6

 40
0.0
 41
0.0
 42
0.0
 43
0.0
 44
0.0
 45
0.0
 46
0.0
 47
0.0
 48
0.0
 49
0.0
140
0.0
141
0.0
142
1.0
143
1.0
 70
688
 72
0
 73
0
 74
5
  7

 75
16
147
1.0
148
0.0
149
0.0
100
AcDbLayout
  1
Layout1
 70
1
 71
1
 10
0.0
 20
0.0
 11
420.0
 21
297.0
 12
0.0
 22
0.0
 32
0.0
 14
100000000000000000000.0
 24
100000000000000000000.0
 34
100000000000000000000.0
 15
-100000000000000000000.0
 25
-100000000000000000000.0
 35
-100000000000000000000.0
146
0.0
 13
0.0
 23
0.0
 33
0.0
 16
1.0
 26
0.0
 36
0.0
 17
0.0
 27
1.0
 37
0.0
 76
0
330
1B
  0
LAYOUT
  5
22
100
AcDbPlotSettings
  1

  2
C:\Program Files\AutoCAD 2002\plotters\DWF ePlot (optimized for plotting).pc3
  4

  6

 40
0.0
 41
0.0
 42
0.0
 43
0.0
 44
0.0
 45
0.0
 46
0.0
 47
0.0
 48
0.0
 49
0.0
140
0.0
141
0.0
142
1.0
143
1.0
 70
1712
 72
0
 73
0
 74
0
  7

 75
0
147
1.0
148
0.0
149
0.0
100
AcDbLayout
  1
Model
 70
1
 71
0
 10
0.0
 20
0.0
 11
12.0
 21
9.0
 12
0.0
 22
0.0
 32
0.0
 14
0.0
 24
0.0
 34
0.0
 15
0.0
 25
0.0
 35
0.0
146
0.0
 13
0.0
 23
0.0
 33
0.0
 16
1.0
 26
0.0
 36
0.0
 17
0.0
 27
1.0
 37
0.0
 76
0
330
1F
  0
LAYOUT
  5
26
100
AcDbPlotSettings
  1

  2
C:\Program Files\AutoCAD 2002\plotters\DWF ePlot (optimized for plotting).pc3
  4

  6

 40
0.0
 41
0.0
 42
0.0
 43
0.0
 44
0.0
 45
0.0
 46
0.0
 47
0.0
 48
0.0
 49
0.0
140
0.0
141
0.0
142
1.0
143
1.0
 70
688
 72
0
 73
0
 74
5
  7

 75
16
147
1.0
148
0.0
149
0.0
100
AcDbLayout
  1
Layout2
 70
1
 71
2
 10
0.0
 20
0.0
 11
12.0
 21
9.0
 12
0.0
 22
0.0
 32
0.0
 14
0.0
 24
0.0
 34
0.0
 15
0.0
 25
0.0
 35
0.0
146
0.0
 13
0.0
 23
0.0
 33
0.0
 16
1.0
 26
0.0
 36
0.0
 17
0.0
 27
1.0
 37
0.0
 76
0
330
23
  0
DICTIONARY
  5
136
100
AcDbDictionary
281
1
  3
DIMASSOC
350
138
  3
HIDETEXT
350
137
  0
DICTIONARYVAR
  5
137
100
DictionaryVariables
280
0
  1
2
  0
DICTIONARYVAR
  5
138
100
DictionaryVariables
280
0
  1
1
  0
ENDSEC
  0
EOF
