999
dxflib 2.2.0.0
  0
SECTION
  2
HEADER
  9
$ACADVER
  1
AC1015
  9
$HANDSEED
  5
FFFF
  9
$SPLINESEGS
 70
8
  9
$DIMEXE
 40
0.05
  9
$PSVPSCALE
 40
0.7515748031496061
  9
$DIMAZIN
 70
8
  9
$DIMZIN
 70
8
  9
$DIMLUNIT
 70
2
  9
$GRIDMODE
 70
1
  9
$INSUNITS
 70
1
  9
$DIMADEC
 70
2
  9
$DIMASZ
 40
0.1
  9
$DIMGAP
 40
0.025
  9
$DIMTXT
 40
0.1
  9
$GRIDUNIT
 10
0.0
 20
0.0
  9
$DIMEXO
 40
0.025
  9
$LUPREC
 70
2
  9
$CLAYER
  8
board
  9
$PINSBASE
 10
0.5852299348931657
 20
-0.5785679635499228
 30
0.0
  9
$DIMAUNIT
 70
0
  9
$AUPREC
 70
2
  9
$PLIMMIN
 10
0.0
 20
0.0
  9
$LUNITS
 70
2
  9
$PLIMMAX
 10
11.0
 20
8.5
  9
$DIMSTYLE
  2
Standard
  9
$AUNITS
 70
0
  9
$CLAYER
  8
border
  0
ENDSEC
  0
SECTION
  2
TABLES
  0
TABLE
  2
VPORT
  5
8
100
AcDbSymbolTable
 70
1
  0
VPORT
  5
30
100
AcDbSymbolTableRecord
100
AcDbViewportTableRecord
  2
*Active
 70
0
 10
0.0
 20
0.0
 11
1.0
 21
1.0
 12
286.3055555555554861
 22
148.5
 13
0.0
 23
0.0
 14
10.0
 24
10.0
 15
10.0
 25
10.0
 16
0.0
 26
0.0
 36
1.0
 17
0.0
 27
0.0
 37
0.0
 40
297.0
 41
1.92798353909465
 42
50.0
 43
0.0
 44
0.0
 50
0.0
 51
0.0
 71
0
 72
100
 73
1
 74
3
 75
1
 76
1
 77
0
 78
0
281
0
 65
1
110
0.0
120
0.0
130
0.0
111
1.0
121
0.0
131
0.0
112
0.0
122
1.0
132
0.0
 79
0
146
0.0
  0
ENDTAB
  0
TABLE
  2
LTYPE
  5
5
100
AcDbSymbolTable
 70
21
  0
LTYPE
  5
14
100
AcDbSymbolTableRecord
100
AcDbLinetypeTableRecord
  2
ByBlock
 70
0
  3

 72
65
 73
0
 40
0.0
  0
LTYPE
  5
15
100
AcDbSymbolTableRecord
100
AcDbLinetypeTableRecord
  2
ByLayer
 70
0
  3

 72
65
 73
0
 40
0.0
  0
LTYPE
  5
16
100
AcDbSymbolTableRecord
100
AcDbLinetypeTableRecord
  2
CONTINUOUS
 70
0
  3
Solid line
 72
65
 73
0
 40
0.0
  0
LTYPE
  5
31
100
AcDbSymbolTableRecord
100
AcDbLinetypeTableRecord
  2
DOT
 70
0
  3
Dot . . . . . . . . . . . . . . . . . . . . . .
 72
65
 73
2
 40
6.3499999999999996
 49
0.0
 74
0
 49
-6.3499999999999996
 74
0
  0
LTYPE
  5
32
100
AcDbSymbolTableRecord
100
AcDbLinetypeTableRecord
  2
DOT2
 70
0
  3
Dot (.5x) .....................................
 72
65
 73
2
 40
3.1749999999999998
 49
0.0
 74
0
 49
-3.1749999999999998
 74
0
  0
LTYPE
  5
33
100
AcDbSymbolTableRecord
100
AcDbLinetypeTableRecord
  2
DOTX2
 70
0
  3
Dot (2x) .  .  .  .  .  .  .  .  .  .  .  .  .
 72
65
 73
2
 40
12.6999999999999993
 49
0.0
 74
0
 49
-12.6999999999999993
 74
0
  0
LTYPE
  5
34
100
AcDbSymbolTableRecord
100
AcDbLinetypeTableRecord
  2
DASHED
 70
0
  3
Dashed __ __ __ __ __ __ __ __ __ __ __ __ __ _
 72
65
 73
2
 40
19.0500000000000007
 49
12.6999999999999993
 74
0
 49
-6.3499999999999996
 74
0
  0
LTYPE
  5
35
100
AcDbSymbolTableRecord
100
AcDbLinetypeTableRecord
  2
DASHED2
 70
0
  3
Dashed (.5x) _ _ _ _ _ _ _ _ _ _ _ _ _ _ _ _ _
 72
65
 73
2
 40
9.5250000000000004
 49
6.3499999999999996
 74
0
 49
-3.1749999999999998
 74
0
  0
LTYPE
  5
36
100
AcDbSymbolTableRecord
100
AcDbLinetypeTableRecord
  2
DASHEDX2
 70
0
  3
Dashed (2x) ____  ____  ____  ____  ____  ___
 72
65
 73
2
 40
38.1000000000000014
 49
25.3999999999999986
 74
0
 49
-12.6999999999999993
 74
0
  0
LTYPE
  5
37
100
AcDbSymbolTableRecord
100
AcDbLinetypeTableRecord
  2
DASHDOT
 70
0
  3
Dash dot __ . __ . __ . __ . __ . __ . __ . __
 72
65
 73
4
 40
25.3999999999999986
 49
12.6999999999999993
 74
0
 49
-6.3499999999999996
 74
0
 49
0.0
 74
0
 49
-6.3499999999999996
 74
0
  0
LTYPE
  5
38
100
AcDbSymbolTableRecord
100
AcDbLinetypeTableRecord
  2
DASHDOT2
 70
0
  3
Dash dot (.5x) _._._._._._._._._._._._._._._.
 72
65
 73
4
 40
12.6999999999999993
 49
6.3499999999999996
 74
0
 49
-3.1749999999999998
 74
0
 49
0.0
 74
0
 49
-3.1749999999999998
 74
0
  0
LTYPE
  5
39
100
AcDbSymbolTableRecord
100
AcDbLinetypeTableRecord
  2
DASHDOTX2
 70
0
  3
Dash dot (2x) ____  .  ____  .  ____  .  ___
 72
65
 73
4
 40
50.7999999999999972
 49
25.3999999999999986
 74
0
 49
-12.6999999999999993
 74
0
 49
0.0
 74
0
 49
-12.6999999999999993
 74
0
  0
LTYPE
  5
3A
100
AcDbSymbolTableRecord
100
AcDbLinetypeTableRecord
  2
DIVIDE
 70
0
  3
Divide ____ . . ____ . . ____ . . ____ . . ____
 72
65
 73
6
 40
31.75
 49
12.6999999999999993
 74
0
 49
-6.3499999999999996
 74
0
 49
0.0
 74
0
 49
-6.3499999999999996
 74
0
 49
0.0
 74
0
 49
-6.3499999999999996
 74
0
  0
LTYPE
  5
3B
100
AcDbSymbolTableRecord
100
AcDbLinetypeTableRecord
  2
DIVIDE2
 70
0
  3
Divide (.5x) __..__..__..__..__..__..__..__.._
 72
65
 73
6
 40
15.875
 49
6.3499999999999996
 74
0
 49
-3.1749999999999998
 74
0
 49
0.0
 74
0
 49
-3.1749999999999998
 74
0
 49
0.0
 74
0
 49
-3.1749999999999998
 74
0
  0
LTYPE
  5
3C
100
AcDbSymbolTableRecord
100
AcDbLinetypeTableRecord
  2
DIVIDEX2
 70
0
  3
Divide (2x) ________  .  .  ________  .  .  _
 72
65
 73
6
 40
63.5
 49
25.3999999999999986
 74
0
 49
-12.6999999999999993
 74
0
 49
0.0
 74
0
 49
-12.6999999999999993
 74
0
 49
0.0
 74
0
 49
-12.6999999999999993
 74
0
  0
LTYPE
  5
3D
100
AcDbSymbolTableRecord
100
AcDbLinetypeTableRecord
  2
CENTER
 70
0
  3
Center ____ _ ____ _ ____ _ ____ _ ____ _ ____
 72
65
 73
4
 40
50.7999999999999972
 49
31.75
 74
0
 49
-6.3499999999999996
 74
0
 49
6.3499999999999996
 74
0
 49
-6.3499999999999996
 74
0
  0
LTYPE
  5
3E
100
AcDbSymbolTableRecord
100
AcDbLinetypeTableRecord
  2
CENTER2
 70
0
  3
Center (.5x) ___ _ ___ _ ___ _ ___ _ ___ _ ___
 72
65
 73
4
 40
28.5749999999999993
 49
19.0500000000000007
 74
0
 49
-3.1749999999999998
 74
0
 49
3.1749999999999998
 74
0
 49
-3.1749999999999998
 74
0
  0
LTYPE
  5
3F
100
AcDbSymbolTableRecord
100
AcDbLinetypeTableRecord
  2
CENTERX2
 70
0
  3
Center (2x) ________  __  ________  __  _____
 72
65
 73
4
 40
101.5999999999999943
 49
63.5
 74
0
 49
-12.6999999999999993
 74
0
 49
12.6999999999999993
 74
0
 49
-12.6999999999999993
 74
0
  0
LTYPE
  5
40
100
AcDbSymbolTableRecord
100
AcDbLinetypeTableRecord
  2
BORDER
 70
0
  3
Border __ __ . __ __ . __ __ . __ __ . __ __ .
 72
65
 73
6
 40
44.4500000000000028
 49
12.6999999999999993
 74
0
 49
-6.3499999999999996
 74
0
 49
12.6999999999999993
 74
0
 49
-6.3499999999999996
 74
0
 49
0.0
 74
0
 49
-6.3499999999999996
 74
0
  0
LTYPE
  5
41
100
AcDbSymbolTableRecord
100
AcDbLinetypeTableRecord
  2
BORDER2
 70
0
  3
Border (.5x) __.__.__.__.__.__.__.__.__.__.__.
 72
65
 73
6
 40
22.2250000000000014
 49
6.3499999999999996
 74
0
 49
-3.1749999999999998
 74
0
 49
6.3499999999999996
 74
0
 49
-3.1749999999999998
 74
0
 49
0.0
 74
0
 49
-3.1749999999999998
 74
0
  0
LTYPE
  5
42
100
AcDbSymbolTableRecord
100
AcDbLinetypeTableRecord
  2
BORDERX2
 70
0
  3
Border (2x) ____  ____  .  ____  ____  .  ___
 72
65
 73
6
 40
88.9000000000000057
 49
25.3999999999999986
 74
0
 49
-12.6999999999999993
 74
0
 49
25.3999999999999986
 74
0
 49
-12.6999999999999993
 74
0
 49
0.0
 74
0
 49
-12.6999999999999993
 74
0
  0
ENDTAB
  0
TABLE
  2
LAYER
  5
2
100
AcDbSymbolTable
 70
10
  0
LAYER
  5
10
100
AcDbSymbolTableRecord
100
AcDbLayerTableRecord
  2
0
 70
0
 62
7
420
0
  6
CONTINUOUS
370
25
390
F
  0
LAYER
  5
43
100
AcDbSymbolTableRecord
100
AcDbLayerTableRecord
  2
dimensions
 70
0
 62
5
420
255
  6
CONTINUOUS
370
25
390
F
  0
LAYER
  5
44
100
AcDbSymbolTableRecord
100
AcDbLayerTableRecord
  2
contour
 70
0
 62
7
420
0
  6
CONTINUOUS
370
25
390
F
  0
LAYER
  5
45
100
AcDbSymbolTableRecord
100
AcDbLayerTableRecord
  2
board
 70
1
 62
-3
420
65280
  6
CONTINUOUS
370
25
390
F
  0
LAYER
  5
46
100
AcDbSymbolTableRecord
100
AcDbLayerTableRecord
  2
center
 70
0
 62
1
420
16711680
  6
CENTER
370
25
390
F
  0
LAYER
  5
47
100
AcDbSymbolTableRecord
100
AcDbLayerTableRecord
  2
pcb bosses
 70
0
 62
7
420
0
  6
CONTINUOUS
370
25
390
F
  0
LAYER
  5
48
100
AcDbSymbolTableRecord
100
AcDbLayerTableRecord
  2
contour_trans
 70
0
 62
7
420
0
  6
DASHED
370
25
390
F
  0
LAYER
  5
49
100
AcDbSymbolTableRecord
100
AcDbLayerTableRecord
  2
cuts
 70
0
 62
7
420
0
  6
DASHED2
370
25
390
F
  0
LAYER
  5
4A
100
AcDbSymbolTableRecord
100
AcDbLayerTableRecord
  2
border
 70
0
 62
7
420
0
  6
CONTINUOUS
370
25
390
F
  0
LAYER
  5
4B
100
AcDbSymbolTableRecord
100
AcDbLayerTableRecord
  2
standoffs
 70
1
 62
-8
420
8421504
  6
CONTINUOUS
370
25
390
F
  0
ENDTAB
  0
TABLE
  2
STYLE
  5
3
100
AcDbSymbolTable
 70
1
  0
STYLE
  5
11
100
AcDbSymbolTableRecord
100
AcDbTextStyleTableRecord
  2
Standard
 70
0
 40
0.0
 41
0.75
 50
0.0
 71
0
 42
2.5
  3
txt
  4

  0
ENDTAB
  0
TABLE
  2
VIEW
  5
6
100
AcDbSymbolTable
 70
0
  0
ENDTAB
  0
TABLE
  2
UCS
  5
7
100
AcDbSymbolTable
 70
0
  0
ENDTAB
  0
TABLE
  2
APPID
  5
9
100
AcDbSymbolTable
 70
1
  0
APPID
  5
12
100
AcDbSymbolTableRecord
100
AcDbRegAppTableRecord
  2
ACAD
 70
0
  0
ENDTAB
  0
TABLE
  2
DIMSTYLE
  5
A
100
AcDbSymbolTable
 70
1
100
AcDbDimStyleTable
 71
0
  0
DIMSTYLE
105
27
100
AcDbSymbolTableRecord
100
AcDbDimStyleTableRecord
  2
Standard
 41
0.1
 42
0.025
 43
3.75
 44
0.05
 70
0
 73
0
 74
0
 77
1
 78
8
140
0.1
141
2.5
143
0.03937007874016
147
0.025
171
3
172
1
271
2
272
2
274
3
278
44
283
0
284
8
340
11
  0
ENDTAB
  0
TABLE
  2
BLOCK_RECORD
  5
1
100
AcDbSymbolTable
 70
1
  0
BLOCK_RECORD
  5
1F
100
AcDbSymbolTableRecord
100
AcDbBlockTableRecord
  2
*Model_Space
340
22
  0
BLOCK_RECORD
  5
1B
100
AcDbSymbolTableRecord
100
AcDbBlockTableRecord
  2
*Paper_Space
340
1E
  0
BLOCK_RECORD
  5
23
100
AcDbSymbolTableRecord
100
AcDbBlockTableRecord
  2
*Paper_Space0
340
26
  0
ENDTAB
  0
ENDSEC
  0
SECTION
  2
BLOCKS
  0
BLOCK
  5
20
100
AcDbEntity
  8
0
100
AcDbBlockBegin
  2
*Model_Space
 70
0
 10
0.0
 20
0.0
 30
0.0
  3
*Model_Space
  1

  0
ENDBLK
  5
21
100
AcDbEntity
  8
0
100
AcDbBlockEnd
  0
BLOCK
  5
1C
100
AcDbEntity
 67
1
  8
0
100
AcDbBlockBegin
  2
*Paper_Space
 70
0
 10
0.0
 20
0.0
 30
0.0
  3
*Paper_Space
  1

  0
ENDBLK
  5
1D
100
AcDbEntity
 67
1
  8
0
100
AcDbBlockEnd
  0
BLOCK
  5
24
100
AcDbEntity
  8
0
100
AcDbBlockBegin
  2
*Paper_Space0
 70
0
 10
0.0
 20
0.0
 30
0.0
  3
*Paper_Space0
  1

  0
ENDBLK
  5
25
100
AcDbEntity
  8
0
100
AcDbBlockEnd
  0
ENDSEC
  0
SECTION
  2
ENTITIES
  0
LINE
  5
4C
100
AcDbEntity
100
AcDbLine
  8
contour
 62
256
370
-1
  6
ByLayer
 10
6.0530000000000008
 20
8.4518400971627337
 30
0.0
 11
6.052999999999999
 21
5.551840097162736
 31
0.0
  0
LINE
  5
4D
100
AcDbEntity
100
AcDbLine
  8
contour
 62
256
370
-1
  6
ByLayer
 10
6.052999999999999
 20
5.551840097162736
 30
0.0
 11
8.947000000000001
 21
5.5518400971627351
 31
0.0
  0
LINE
  5
4E
100
AcDbEntity
100
AcDbLine
  8
contour
 62
256
370
-1
  6
ByLayer
 10
8.947000000000001
 20
5.5518400971627351
 30
0.0
 11
8.947000000000001
 21
8.4518400971627337
 31
0.0
  0
LINE
  5
4F
100
AcDbEntity
100
AcDbLine
  8
contour
 62
256
370
-1
  6
ByLayer
 10
8.947000000000001
 20
8.4518400971627337
 30
0.0
 11
6.0530000000000008
 21
8.4518400971627337
 31
0.0
  0
LINE
  5
50
100
AcDbEntity
100
AcDbLine
  8
board
 62
256
370
-1
  6
ByLayer
 10
6.2490452056522887
 20
7.9761056756398645
 30
0.0
 11
6.2490452056522878
 21
6.0261056756398643
 31
0.0
  0
LINE
  5
51
100
AcDbEntity
100
AcDbLine
  8
board
 62
256
370
-1
  6
ByLayer
 10
6.2490452056522878
 20
6.0261056756398643
 30
0.0
 11
8.7490452056522869
 21
6.0261056756398634
 31
0.0
  0
LINE
  5
52
100
AcDbEntity
100
AcDbLine
  8
board
 62
256
370
-1
  6
ByLayer
 10
8.7490452056522869
 20
6.0261056756398634
 30
0.0
 11
8.7490452056522905
 21
7.9761056756398636
 31
0.0
  0
LINE
  5
53
100
AcDbEntity
100
AcDbLine
  8
board
 62
256
370
-1
  6
ByLayer
 10
8.7490452056522905
 20
7.9761056756398636
 30
0.0
 11
6.2490452056522887
 21
7.9761056756398645
 31
0.0
  0
CIRCLE
  5
54
100
AcDbEntity
100
AcDbCircle
  8
board
 62
256
370
-1
  6
ByLayer
 10
6.3490452056522892
 20
7.876105675639864
 30
0.0
 40
0.062
  0
CIRCLE
  5
55
100
AcDbEntity
100
AcDbCircle
  8
board
 62
256
370
-1
  6
ByLayer
 10
6.3490452056522884
 20
6.126105675639864
 30
0.0
 40
0.062
  0
CIRCLE
  5
56
100
AcDbEntity
100
AcDbCircle
  8
board
 62
256
370
-1
  6
ByLayer
 10
8.6490452056522891
 20
6.126105675639864
 30
0.0
 40
0.062
  0
LINE
  5
57
100
AcDbEntity
100
AcDbLine
  8
board
 62
256
370
-1
  6
ByLayer
 10
6.7990452056522885
 20
7.6761056756398638
 30
0.0
 11
6.7990452056522885
 21
7.0761056756398641
 31
0.0
  0
LINE
  5
58
100
AcDbEntity
100
AcDbLine
  8
board
 62
256
370
-1
  6
ByLayer
 10
6.7990452056522885
 20
7.0761056756398641
 30
0.0
 11
5.9990452056522887
 21
7.0761056756398633
 31
0.0
  0
LINE
  5
59
100
AcDbEntity
100
AcDbLine
  8
board
 62
256
370
-1
  6
ByLayer
 10
5.9990452056522887
 20
7.0761056756398633
 30
0.0
 11
5.9990452056522896
 21
7.6761056756398638
 31
0.0
  0
LINE
  5
5A
100
AcDbEntity
100
AcDbLine
  8
board
 62
256
370
-1
  6
ByLayer
 10
5.9990452056522896
 20
7.6761056756398638
 30
0.0
 11
6.7990452056522885
 21
7.6761056756398638
 31
0.0
  0
LINE
  5
5B
100
AcDbEntity
100
AcDbLine
  8
board
 62
256
370
-1
  6
ByLayer
 10
6.7990452056522894
 20
6.9261056756398629
 30
0.0
 11
6.7990452056522885
 21
6.3261056756398633
 31
0.0
  0
LINE
  5
5C
100
AcDbEntity
100
AcDbLine
  8
board
 62
256
370
-1
  6
ByLayer
 10
6.7990452056522885
 20
6.3261056756398633
 30
0.0
 11
5.9990452056522887
 21
6.3261056756398633
 31
0.0
  0
LINE
  5
5D
100
AcDbEntity
100
AcDbLine
  8
board
 62
256
370
-1
  6
ByLayer
 10
5.9990452056522887
 20
6.3261056756398633
 30
0.0
 11
5.9990452056522887
 21
6.9261056756398647
 31
0.0
  0
LINE
  5
5E
100
AcDbEntity
100
AcDbLine
  8
board
 62
256
370
-1
  6
ByLayer
 10
5.9990452056522887
 20
6.9261056756398647
 30
0.0
 11
6.7990452056522894
 21
6.9261056756398629
 31
0.0
  0
CIRCLE
  5
5F
100
AcDbEntity
100
AcDbCircle
  8
board
 62
256
370
-1
  6
ByLayer
 10
8.6490452056522891
 20
7.876105675639864
 30
0.0
 40
0.062
  0
LINE
  5
60
100
AcDbEntity
100
AcDbLine
  8
contour
 62
256
370
-1
  6
ByLayer
 10
5.987000000000001
 20
8.6618400971627345
 30
0.0
 11
5.987000000000001
 21
5.3418400971627351
 31
0.0
  0
LINE
  5
61
100
AcDbEntity
100
AcDbLine
  8
contour
 62
256
370
-1
  6
ByLayer
 10
5.987000000000001
 20
5.3418400971627351
 30
0.0
 11
7.5000000000000018
 21
5.0018400971627353
 31
0.0
  0
LINE
  5
62
100
AcDbEntity
100
AcDbLine
  8
contour
 62
256
370
-1
  6
ByLayer
 10
7.5000000000000018
 20
5.0018400971627353
 30
0.0
 11
9.0130000000000088
 21
5.3418400971627351
 31
0.0
  0
LINE
  5
63
100
AcDbEntity
100
AcDbLine
  8
contour
 62
256
370
-1
  6
ByLayer
 10
9.0130000000000088
 20
5.3418400971627351
 30
0.0
 11
9.0130000000000017
 21
8.6618400971627345
 31
0.0
  0
LINE
  5
64
100
AcDbEntity
100
AcDbLine
  8
contour
 62
256
370
-1
  6
ByLayer
 10
9.0130000000000017
 20
8.6618400971627345
 30
0.0
 11
7.5000000000000009
 21
9.0018400971627344
 31
0.0
  0
LINE
  5
65
100
AcDbEntity
100
AcDbLine
  8
contour
 62
256
370
-1
  6
ByLayer
 10
7.5000000000000009
 20
9.0018400971627344
 30
0.0
 11
5.987000000000001
 21
8.6618400971627345
 31
0.0
  0
LINE
  5
66
100
AcDbEntity
100
AcDbLine
  8
center
 62
256
370
-1
  6
ByLayer
 10
9.1418115676258296
 20
7.0
 30
0.0
 11
5.8418115676258289
 21
7.0
 31
0.0
  0
LINE
  5
67
100
AcDbEntity
100
AcDbLine
  8
center
 62
256
370
-1
  6
ByLayer
 10
7.5000000000000009
 20
9.2018400971627372
 30
0.0
 11
7.4999999999999991
 21
4.801840097162736
 31
0.0
  0
CIRCLE
  5
68
100
AcDbEntity
100
AcDbCircle
  8
contour
 62
256
370
-1
  6
ByLayer
 10
7.5
 20
8.7518400971627344
 30
0.0
 40
0.0875
  0
CIRCLE
  5
69
100
AcDbEntity
100
AcDbCircle
  8
contour
 62
256
370
-1
  6
ByLayer
 10
7.5000000000000018
 20
5.2518400971627353
 30
0.0
 40
0.0875
  0
CIRCLE
  5
6A
100
AcDbEntity
100
AcDbCircle
  8
pcb bosses
 62
256
370
-1
  6
ByLayer
 10
6.3490452056522892
 20
7.876105675639864
 30
0.0
 40
0.0415
  0
CIRCLE
  5
6B
100
AcDbEntity
100
AcDbCircle
  8
pcb bosses
 62
256
370
-1
  6
ByLayer
 10
6.3490452056522892
 20
7.876105675639864
 30
0.0
 40
0.095
  0
CIRCLE
  5
6C
100
AcDbEntity
100
AcDbCircle
  8
pcb bosses
 62
256
370
-1
  6
ByLayer
 10
6.3490452056522884
 20
6.126105675639864
 30
0.0
 40
0.0415
  0
CIRCLE
  5
6D
100
AcDbEntity
100
AcDbCircle
  8
pcb bosses
 62
256
370
-1
  6
ByLayer
 10
6.3490452056522884
 20
6.126105675639864
 30
0.0
 40
0.095
  0
CIRCLE
  5
6E
100
AcDbEntity
100
AcDbCircle
  8
pcb bosses
 62
256
370
-1
  6
ByLayer
 10
8.6490452056522891
 20
6.126105675639864
 30
0.0
 40
0.0415
  0
CIRCLE
  5
6F
100
AcDbEntity
100
AcDbCircle
  8
pcb bosses
 62
256
370
-1
  6
ByLayer
 10
8.6490452056522891
 20
6.126105675639864
 30
0.0
 40
0.095
  0
CIRCLE
  5
70
100
AcDbEntity
100
AcDbCircle
  8
pcb bosses
 62
256
370
-1
  6
ByLayer
 10
8.6490452056522891
 20
7.876105675639864
 30
0.0
 40
0.0415
  0
CIRCLE
  5
71
100
AcDbEntity
100
AcDbCircle
  8
pcb bosses
 62
256
370
-1
  6
ByLayer
 10
8.6490452056522891
 20
7.876105675639864
 30
0.0
 40
0.095
  0
LINE
  5
72
100
AcDbEntity
100
AcDbLine
  8
cuts
 62
256
370
-1
  6
ByLayer
 10
5.9870000000000001
 20
7.706105675639864
 30
0.0
 11
6.0529999999999999
 21
7.706105675639864
 31
0.0
  0
LINE
  5
73
100
AcDbEntity
100
AcDbLine
  8
cuts
 62
256
370
-1
  6
ByLayer
 10
6.0529999999999999
 20
7.706105675639864
 30
0.0
 11
6.0529999999999999
 21
7.0461056756398639
 31
0.0
  0
LINE
  5
74
100
AcDbEntity
100
AcDbLine
  8
cuts
 62
256
370
-1
  6
ByLayer
 10
6.0529999999999999
 20
7.0461056756398639
 30
0.0
 11
5.9870000000000001
 21
7.0461056756398639
 31
0.0
  0
LINE
  5
75
100
AcDbEntity
100
AcDbLine
  8
cuts
 62
256
370
-1
  6
ByLayer
 10
5.9870000000000001
 20
7.0461056756398639
 30
0.0
 11
5.9870000000000001
 21
7.706105675639864
 31
0.0
  0
LINE
  5
76
100
AcDbEntity
100
AcDbLine
  8
cuts
 62
256
370
-1
  6
ByLayer
 10
5.987000000000001
 20
6.9561056756398649
 30
0.0
 11
6.0529999999999999
 21
6.9561056756398649
 31
0.0
  0
LINE
  5
77
100
AcDbEntity
100
AcDbLine
  8
cuts
 62
256
370
-1
  6
ByLayer
 10
6.0529999999999999
 20
6.9561056756398649
 30
0.0
 11
6.0529999999999999
 21
6.2961056756398648
 31
0.0
  0
LINE
  5
78
100
AcDbEntity
100
AcDbLine
  8
cuts
 62
256
370
-1
  6
ByLayer
 10
6.0529999999999999
 20
6.2961056756398648
 30
0.0
 11
5.987000000000001
 21
6.2961056756398648
 31
0.0
  0
LINE
  5
79
100
AcDbEntity
100
AcDbLine
  8
cuts
 62
256
370
-1
  6
ByLayer
 10
5.987000000000001
 20
6.2961056756398648
 30
0.0
 11
5.987000000000001
 21
6.9561056756398649
 31
0.0
  0
LINE
  5
7A
100
AcDbEntity
100
AcDbLine
  8
contour
 62
256
370
-1
  6
ByLayer
 10
12.2721259124088569
 20
5.0
 30
0.0
 11
12.2721259124088569
 21
9.0
 31
0.0
  0
LINE
  5
7B
100
AcDbEntity
100
AcDbLine
  8
contour
 62
256
370
-1
  6
ByLayer
 10
12.2721259124088569
 20
5.0
 30
0.0
 11
12.1471259124088569
 21
5.0
 31
0.0
  0
LINE
  5
7C
100
AcDbEntity
100
AcDbLine
  8
contour
 62
256
370
-1
  6
ByLayer
 10
12.1471259124088569
 20
5.0
 30
0.0
 11
12.1471259124088569
 21
5.0
 31
0.0
  0
LINE
  5
7D
100
AcDbEntity
100
AcDbLine
  8
contour
 62
256
370
-1
  6
ByLayer
 10
12.1471259124088569
 20
5.0
 30
0.0
 11
12.1471259124088569
 21
5.3399999999999999
 31
0.0
  0
LINE
  5
7E
100
AcDbEntity
100
AcDbLine
  8
contour
 62
256
370
-1
  6
ByLayer
 10
12.2721259124088569
 20
9.0
 30
0.0
 11
12.1471259124088569
 21
9.0
 31
0.0
  0
LINE
  5
7F
100
AcDbEntity
100
AcDbLine
  8
contour
 62
256
370
-1
  6
ByLayer
 10
12.1471259124088569
 20
9.0
 30
0.0
 11
12.1471259124088569
 21
9.0
 31
0.0
  0
LINE
  5
80
100
AcDbEntity
100
AcDbLine
  8
contour
 62
256
370
-1
  6
ByLayer
 10
12.1471259124088569
 20
9.0
 30
0.0
 11
12.1471259124088569
 21
8.6600000000000001
 31
0.0
  0
LINE
  5
81
100
AcDbEntity
100
AcDbLine
  8
contour_trans
 62
256
370
-1
  6
ByLayer
 10
12.1771259124088562
 20
5.5500000000000007
 30
0.0
 11
12.1771259124088562
 21
8.4500000000000011
 31
0.0
  0
LINE
  5
82
100
AcDbEntity
100
AcDbLine
  8
contour
 62
256
370
-1
  6
ByLayer
 10
12.1471259124088569
 20
5.3399999999999999
 30
0.0
 11
10.9976259124088571
 21
5.3399999999999999
 31
0.0
  0
LINE
  5
83
100
AcDbEntity
100
AcDbLine
  8
contour
 62
256
370
-1
  6
ByLayer
 10
10.9976259124088571
 20
5.3399999999999999
 30
0.0
 11
10.9976259124088571
 21
8.6600000000000001
 31
0.0
  0
LINE
  5
84
100
AcDbEntity
100
AcDbLine
  8
contour
 62
256
370
-1
  6
ByLayer
 10
10.9976259124088571
 20
8.6600000000000001
 30
0.0
 11
12.1471259124088569
 21
8.6600000000000001
 31
0.0
  0
LINE
  5
85
100
AcDbEntity
100
AcDbLine
  8
contour_trans
 62
256
370
-1
  6
ByLayer
 10
12.1771259124088562
 20
8.4500000000000011
 30
0.0
 11
10.9976259124088571
 21
8.4499999999999993
 31
0.0
  0
LINE
  5
86
100
AcDbEntity
100
AcDbLine
  8
contour_trans
 62
256
370
-1
  6
ByLayer
 10
10.9976259124088571
 20
8.4499999999999993
 30
0.0
 11
10.9976259124088571
 21
8.5159999999999982
 31
0.0
  0
LINE
  5
87
100
AcDbEntity
100
AcDbLine
  8
contour_trans
 62
256
370
-1
  6
ByLayer
 10
12.1771259124088562
 20
5.5500000000000007
 30
0.0
 11
10.9976259124088571
 21
5.5500000000000007
 31
0.0
  0
LINE
  5
88
100
AcDbEntity
100
AcDbLine
  8
contour_trans
 62
256
370
-1
  6
ByLayer
 10
10.9976259124088571
 20
5.484
 30
0.0
 11
12.1471259124088569
 21
5.484
 31
0.0
  0
LINE
  5
89
100
AcDbEntity
100
AcDbLine
  8
contour_trans
 62
256
370
-1
  6
ByLayer
 10
12.1471259124088569
 20
5.484
 30
0.0
 11
12.1471259124088569
 21
5.3399999999999999
 31
0.0
  0
LINE
  5
8A
100
AcDbEntity
100
AcDbLine
  8
contour_trans
 62
256
370
-1
  6
ByLayer
 10
10.9976259124088571
 20
8.5159999999999982
 30
0.0
 11
12.1471259124088569
 21
8.5160000000000018
 31
0.0
  0
LINE
  5
8B
100
AcDbEntity
100
AcDbLine
  8
contour_trans
 62
256
370
-1
  6
ByLayer
 10
12.1471259124088569
 20
8.5160000000000018
 30
0.0
 11
12.1471259124088569
 21
8.6600000000000001
 31
0.0
  0
LINE
  5
8C
100
AcDbEntity
100
AcDbLine
  8
center
 62
256
370
-1
  6
ByLayer
 10
12.3875456204380541
 20
7.0
 30
0.0
 11
10.8444343065694326
 21
7.0
 31
0.0
  0
LINE
  5
8D
100
AcDbEntity
100
AcDbLine
  8
board
 62
256
370
-1
  6
ByLayer
 10
11.9271259124088562
 20
6.0307344215228706
 30
0.0
 11
11.8651259124088568
 21
6.0307344215228706
 31
0.0
  0
LINE
  5
8E
100
AcDbEntity
100
AcDbLine
  8
board
 62
256
370
-1
  6
ByLayer
 10
11.8651259124088568
 20
6.0307344215228706
 30
0.0
 11
11.8651259124088568
 21
7.9807344215228708
 31
0.0
  0
LINE
  5
8F
100
AcDbEntity
100
AcDbLine
  8
board
 62
256
370
-1
  6
ByLayer
 10
11.8651259124088568
 20
7.9807344215228708
 30
0.0
 11
11.9271259124088562
 21
7.9807344215228708
 31
0.0
  0
LINE
  5
90
100
AcDbEntity
100
AcDbLine
  8
board
 62
256
370
-1
  6
ByLayer
 10
11.9271259124088562
 20
7.9807344215228708
 30
0.0
 11
11.9271259124088562
 21
6.0307344215228706
 31
0.0
  0
LINE
  5
91
100
AcDbEntity
100
AcDbLine
  8
board
 62
256
370
-1
  6
ByLayer
 10
11.8651259124088568
 20
6.3257344215228706
 30
0.0
 11
11.2551259124088574
 21
6.3257344215228706
 31
0.0
  0
LINE
  5
92
100
AcDbEntity
100
AcDbLine
  8
board
 62
256
370
-1
  6
ByLayer
 10
11.2551259124088574
 20
6.3257344215228706
 30
0.0
 11
11.2551259124088574
 21
6.9257344215228702
 31
0.0
  0
LINE
  5
93
100
AcDbEntity
100
AcDbLine
  8
board
 62
256
370
-1
  6
ByLayer
 10
11.2551259124088574
 20
6.9257344215228702
 30
0.0
 11
11.8651259124088568
 21
6.9257344215228702
 31
0.0
  0
LINE
  5
94
100
AcDbEntity
100
AcDbLine
  8
board
 62
256
370
-1
  6
ByLayer
 10
11.8651259124088568
 20
6.9257344215228702
 30
0.0
 11
11.8651259124088568
 21
6.3257344215228706
 31
0.0
  0
LINE
  5
95
100
AcDbEntity
100
AcDbLine
  8
board
 62
256
370
-1
  6
ByLayer
 10
11.8651259124088568
 20
7.0757344215228697
 30
0.0
 11
11.2551259124088574
 21
7.0757344215228697
 31
0.0
  0
LINE
  5
96
100
AcDbEntity
100
AcDbLine
  8
board
 62
256
370
-1
  6
ByLayer
 10
11.2551259124088574
 20
7.0757344215228697
 30
0.0
 11
11.2551259124088574
 21
7.6757344215228693
 31
0.0
  0
LINE
  5
97
100
AcDbEntity
100
AcDbLine
  8
board
 62
256
370
-1
  6
ByLayer
 10
11.2551259124088574
 20
7.6757344215228693
 30
0.0
 11
11.8651259124088568
 21
7.6757344215228693
 31
0.0
  0
LINE
  5
98
100
AcDbEntity
100
AcDbLine
  8
board
 62
256
370
-1
  6
ByLayer
 10
11.8651259124088568
 20
7.6757344215228693
 30
0.0
 11
11.8651259124088568
 21
7.0757344215228697
 31
0.0
  0
CIRCLE
  5
99
100
AcDbEntity
100
AcDbCircle
  8
cuts
 62
256
370
-1
  6
ByLayer
 10
11.5435766423358643
 20
7.0
 30
0.0
 40
0.16
  0
DIMENSION
  5
9A
100
AcDbEntity
  8
dimensions
 62
256
370
-1
  6
ByLayer
100
AcDbDimension
 10
9.500145985401554
 20
7.876105675639864
 30
0.0
 11
9.4251459854015547
 21
7.001105675639864
 31
0.0
 70
1
 71
5
 72
0
 41
1.0
 42
0.0
  1

  3
Standard
100
AcDbAlignedDimension
 13
8.6490452056522891
 23
7.876105675639864
 33
0.0
 14
8.6490452056522891
 24
6.126105675639864
 34
0.0
  0
DIMENSION
  5
9B
100
AcDbEntity
  8
dimensions
 62
256
370
-1
  6
ByLayer
100
AcDbDimension
 10
6.3490452056522892
 20
9.3973722627738141
 30
0.0
 11
7.4990452056522887
 21
9.4723722627738134
 31
0.0
 70
1
 71
5
 72
0
 41
1.0
 42
0.0
  1

  3
Standard
100
AcDbAlignedDimension
 13
6.3490452056522892
 23
7.876105675639864
 33
0.0
 14
8.6490452056522891
 24
7.876105675639864
 34
0.0
  0
LINE
  5
9C
100
AcDbEntity
100
AcDbLine
  8
cuts
 62
256
370
-1
  6
ByLayer
 10
8.947000000000001
 20
7.1600000000000001
 30
0.0
 11
9.0130000000000052
 21
7.1600000000000001
 31
0.0
  0
LINE
  5
9D
100
AcDbEntity
100
AcDbLine
  8
cuts
 62
256
370
-1
  6
ByLayer
 10
9.0130000000000052
 20
7.1600000000000001
 30
0.0
 11
9.0130000000000052
 21
6.8399999999999999
 31
0.0
  0
LINE
  5
9E
100
AcDbEntity
100
AcDbLine
  8
cuts
 62
256
370
-1
  6
ByLayer
 10
9.0130000000000052
 20
6.8399999999999999
 30
0.0
 11
8.947000000000001
 21
6.8399999999999999
 31
0.0
  0
LINE
  5
9F
100
AcDbEntity
100
AcDbLine
  8
cuts
 62
256
370
-1
  6
ByLayer
 10
8.947000000000001
 20
6.8399999999999999
 30
0.0
 11
8.947000000000001
 21
7.1600000000000001
 31
0.0
  0
LEADER
  5
A0
  8
dimensions
 62
256
370
-1
  6
ByLayer
100
AcDbEntity
100
AcDbLeader
  3
Standard
 71
1
 72
0
 73
3
 74
0
 75
0
 40
1.0
 41
10.0
 76
3
 10
11.4346239052014109
 20
6.8828278997759664
 10
10.7189781021898991
 20
5.9014598540146634
 10
10.4680656934307716
 20
5.9014598540146634
  0
LEADER
  5
A1
  8
dimensions
 62
256
370
-1
  6
ByLayer
100
AcDbEntity
100
AcDbLeader
  3
Standard
 71
1
 72
0
 73
3
 74
0
 75
0
 40
1.0
 41
10.0
 76
3
 10
6.2936879802175607
 20
6.0489008986363091
 10
5.5501824817518859
 20
5.1286496350365525
 10
5.1687956204380123
 20
5.1286496350365525
  0
DIMENSION
  5
A2
100
AcDbEntity
  8
dimensions
 62
256
370
-1
  6
ByLayer
100
AcDbDimension
 10
11.5435766423358643
 20
9.6250000000001048
 30
0.0
 11
11.2706012773723607
 21
9.7000000000001041
 31
0.0
 70
0
 71
5
 72
0
 41
1.0
 42
0.0
  1

  3
Standard
100
AcDbAlignedDimension
 13
10.9976259124088571
 23
8.6600000000000001
 33
0.0
 14
11.5435766423358643
 24
7.0
 34
0.0
 50
0.0
100
AcDbRotatedDimension
  0
LINE
  5
A3
100
AcDbEntity
100
AcDbLine
  8
contour
 62
256
370
-1
  6
ByLayer
 10
1.8404425182481976
 20
9.0
 30
0.0
 11
1.8404425182481974
 21
5.0
 31
0.0
  0
LINE
  5
A4
100
AcDbEntity
100
AcDbLine
  8
contour
 62
256
370
-1
  6
ByLayer
 10
1.8404425182481976
 20
9.0
 30
0.0
 11
1.9654425182481976
 21
9.0
 31
0.0
  0
LINE
  5
A5
100
AcDbEntity
100
AcDbLine
  8
contour
 62
256
370
-1
  6
ByLayer
 10
1.9654425182481976
 20
9.0
 30
0.0
 11
1.9654425182481976
 21
9.0
 31
0.0
  0
LINE
  5
A6
100
AcDbEntity
100
AcDbLine
  8
contour
 62
256
370
-1
  6
ByLayer
 10
1.9654425182481976
 20
9.0
 30
0.0
 11
1.9654425182481976
 21
8.6600000000000001
 31
0.0
  0
LINE
  5
A7
100
AcDbEntity
100
AcDbLine
  8
contour
 62
256
370
-1
  6
ByLayer
 10
1.8404425182481976
 20
5.0000000000000009
 30
0.0
 11
1.9654425182481976
 21
5.0000000000000009
 31
0.0
  0
LINE
  5
A8
100
AcDbEntity
100
AcDbLine
  8
contour
 62
256
370
-1
  6
ByLayer
 10
1.9654425182481976
 20
5.0000000000000009
 30
0.0
 11
1.9654425182481976
 21
5.0000000000000009
 31
0.0
  0
LINE
  5
A9
100
AcDbEntity
100
AcDbLine
  8
contour
 62
256
370
-1
  6
ByLayer
 10
1.9654425182481976
 20
5.0000000000000009
 30
0.0
 11
1.9654425182481976
 21
5.3400000000000007
 31
0.0
  0
LINE
  5
AA
100
AcDbEntity
100
AcDbLine
  8
contour_trans
 62
256
370
-1
  6
ByLayer
 10
1.9354425182481976
 20
8.4499999999999993
 30
0.0
 11
1.9354425182481976
 21
5.5499999999999989
 31
0.0
  0
LINE
  5
AB
100
AcDbEntity
100
AcDbLine
  8
contour
 62
256
370
-1
  6
ByLayer
 10
1.9654425182481976
 20
8.6600000000000001
 30
0.0
 11
3.1149425182481973
 21
8.6600000000000001
 31
0.0
  0
LINE
  5
AC
100
AcDbEntity
100
AcDbLine
  8
contour
 62
256
370
-1
  6
ByLayer
 10
3.1149425182481973
 20
8.6600000000000001
 30
0.0
 11
3.1149425182481973
 21
5.3399999999999999
 31
0.0
  0
LINE
  5
AD
100
AcDbEntity
100
AcDbLine
  8
contour
 62
256
370
-1
  6
ByLayer
 10
3.1149425182481973
 20
5.3399999999999999
 30
0.0
 11
1.9654425182481976
 21
5.3399999999999999
 31
0.0
  0
LINE
  5
AE
100
AcDbEntity
100
AcDbLine
  8
contour_trans
 62
256
370
-1
  6
ByLayer
 10
1.9354425182481976
 20
5.5499999999999989
 30
0.0
 11
3.1149425182481973
 21
5.5500000000000016
 31
0.0
  0
LINE
  5
AF
100
AcDbEntity
100
AcDbLine
  8
contour_trans
 62
256
370
-1
  6
ByLayer
 10
3.1149425182481973
 20
5.5500000000000016
 30
0.0
 11
3.1149425182481973
 21
5.4840000000000018
 31
0.0
  0
LINE
  5
B0
100
AcDbEntity
100
AcDbLine
  8
contour_trans
 62
256
370
-1
  6
ByLayer
 10
1.9354425182481976
 20
8.4499999999999993
 30
0.0
 11
3.1149425182481973
 21
8.4499999999999993
 31
0.0
  0
LINE
  5
B1
100
AcDbEntity
100
AcDbLine
  8
contour_trans
 62
256
370
-1
  6
ByLayer
 10
3.1149425182481973
 20
8.516
 30
0.0
 11
1.9654425182481976
 21
8.516
 31
0.0
  0
LINE
  5
B2
100
AcDbEntity
100
AcDbLine
  8
contour_trans
 62
256
370
-1
  6
ByLayer
 10
1.9654425182481976
 20
8.516
 30
0.0
 11
1.9654425182481976
 21
8.6600000000000001
 31
0.0
  0
LINE
  5
B3
100
AcDbEntity
100
AcDbLine
  8
contour_trans
 62
256
370
-1
  6
ByLayer
 10
3.1149425182481973
 20
5.4840000000000018
 30
0.0
 11
1.9654425182481976
 21
5.4839999999999991
 31
0.0
  0
LINE
  5
B4
100
AcDbEntity
100
AcDbLine
  8
contour_trans
 62
256
370
-1
  6
ByLayer
 10
1.9654425182481976
 20
5.4839999999999991
 30
0.0
 11
1.9654425182481976
 21
5.3399999999999999
 31
0.0
  0
LINE
  5
B5
100
AcDbEntity
100
AcDbLine
  8
center
 62
256
370
-1
  6
ByLayer
 10
1.7250228102190004
 20
7.0
 30
0.0
 11
3.2681341240876218
 21
7.0
 31
0.0
  0
LINE
  5
B6
100
AcDbEntity
100
AcDbLine
  8
cuts
 62
256
370
-1
  6
ByLayer
 10
2.2274425182481976
 20
7.7042655784771297
 30
0.0
 11
2.8874425182481973
 21
7.7042655784771297
 31
0.0
  0
LINE
  5
B7
100
AcDbEntity
100
AcDbLine
  8
cuts
 62
256
370
-1
  6
ByLayer
 10
2.8874425182481973
 20
7.7042655784771297
 30
0.0
 11
2.8874425182481973
 21
7.0442655784771295
 31
0.0
  0
LINE
  5
B8
100
AcDbEntity
100
AcDbLine
  8
cuts
 62
256
370
-1
  6
ByLayer
 10
2.8874425182481973
 20
7.0442655784771295
 30
0.0
 11
2.2274425182481976
 21
7.0442655784771295
 31
0.0
  0
LINE
  5
B9
100
AcDbEntity
100
AcDbLine
  8
cuts
 62
256
370
-1
  6
ByLayer
 10
2.2274425182481976
 20
7.0442655784771295
 30
0.0
 11
2.2274425182481976
 21
7.7042655784771297
 31
0.0
  0
LINE
  5
BA
100
AcDbEntity
100
AcDbLine
  8
cuts
 62
256
370
-1
  6
ByLayer
 10
2.2274425182481976
 20
6.9542655784771306
 30
0.0
 11
2.8874425182481973
 21
6.9542655784771306
 31
0.0
  0
LINE
  5
BB
100
AcDbEntity
100
AcDbLine
  8
cuts
 62
256
370
-1
  6
ByLayer
 10
2.8874425182481973
 20
6.9542655784771306
 30
0.0
 11
2.8874425182481973
 21
6.2942655784771304
 31
0.0
  0
LINE
  5
BC
100
AcDbEntity
100
AcDbLine
  8
cuts
 62
256
370
-1
  6
ByLayer
 10
2.8874425182481973
 20
6.2942655784771304
 30
0.0
 11
2.2274425182481976
 21
6.2942655784771304
 31
0.0
  0
LINE
  5
BD
100
AcDbEntity
100
AcDbLine
  8
cuts
 62
256
370
-1
  6
ByLayer
 10
2.2274425182481976
 20
6.2942655784771304
 30
0.0
 11
2.2274425182481976
 21
6.9542655784771306
 31
0.0
  0
DIMENSION
  5
BE
100
AcDbEntity
  8
dimensions
 62
256
370
-1
  6
ByLayer
100
AcDbDimension
 10
2.2274425182481976
 20
9.7335613626913862
 30
0.0
 11
2.0339425182481978
 21
9.8085613626913855
 31
0.0
 70
0
 71
5
 72
0
 41
1.0
 42
0.0
  1

  3
Standard
100
AcDbAlignedDimension
 13
1.8404425182481976
 23
9.0
 33
0.0
 14
2.2274425182481976
 24
7.7042655784771297
 34
0.0
 50
0.0
100
AcDbRotatedDimension
  0
DIMENSION
  5
BF
100
AcDbEntity
  8
dimensions
 62
256
370
-1
  6
ByLayer
100
AcDbDimension
 10
2.8874425182481978
 20
9.7335613626913862
 30
0.0
 11
2.5574425182481972
 21
9.8085613626913855
 31
0.0
 70
0
 71
5
 72
0
 41
1.0
 42
0.0
  1

  3
Standard
100
AcDbAlignedDimension
 13
2.2274425182481976
 23
7.72926557847713
 33
0.0
 14
2.8874425182481973
 24
7.7042655784771297
 34
0.0
 50
0.0
100
AcDbRotatedDimension
  0
LINE
  5
C0
100
AcDbEntity
100
AcDbLine
  8
dimensions
 62
256
370
-1
  6
ByLayer
 10
4.3395301094891039
 20
7.7042655784771297
 30
0.0
 11
4.3395301094891039
 21
6.2942655784771304
 31
0.0
  0
SOLID
  5
C1
100
AcDbEntity
100
AcDbTrace
  8
dimensions
 62
256
370
-1
  6
ByLayer
 10
4.3395301094891039
 20
7.7042655784771297
 30
0.0
 11
4.3561814958000173
 21
7.60426557847713
 31
0.0
 12
4.3228787231781904
 22
7.60426557847713
 32
0.0
 13
4.3228787231781904
 23
7.60426557847713
 33
0.0
 39
0.0
  0
SOLID
  5
C2
100
AcDbEntity
100
AcDbTrace
  8
dimensions
 62
256
370
-1
  6
ByLayer
 10
4.3395301094891039
 20
6.2942655784771304
 30
0.0
 11
4.3228787231781904
 21
6.3942655784771301
 31
0.0
 12
4.3561814958000173
 22
6.3942655784771301
 32
0.0
 13
4.3561814958000173
 23
6.3942655784771301
 33
0.0
 39
0.0
  0
LINE
  5
C3
100
AcDbEntity
100
AcDbLine
  8
dimensions
 62
256
370
-1
  6
ByLayer
 10
2.9124425182481972
 20
7.7042655784771297
 30
0.0
 11
4.3895301094891037
 21
7.7042655784771297
 31
0.0
  0
LINE
  5
C4
100
AcDbEntity
100
AcDbLine
  8
dimensions
 62
256
370
-1
  6
ByLayer
 10
2.9124425182481972
 20
6.2942655784771304
 30
0.0
 11
4.3895301094891037
 21
6.2942655784771304
 31
0.0
  0
MTEXT
  5
C5
100
AcDbEntity
100
AcDbMText
  8
dimensions
 62
256
370
-1
  6
ByLayer
 10
4.4426580450933315
 20
7.0199484356205373
 30
0.0
 40
0.1
 41
30.0
 71
5
 72
2
  1
1.41
  7
standard
 50
270.0
 73
0
 44
1.0
  0
LINE
  5
C6
100
AcDbEntity
100
AcDbLine
  8
dimensions
 62
256
370
-1
  6
ByLayer
 10
3.8075958029197543
 20
7.2442655784771297
 30
0.0
 11
3.8075958029197543
 21
6.7542655784771304
 31
0.0
  0
SOLID
  5
C7
100
AcDbEntity
100
AcDbTrace
  8
dimensions
 62
256
370
-1
  6
ByLayer
 10
3.8075958029197543
 20
7.0442655784771295
 30
0.0
 11
3.7909444166088409
 21
7.1442655784771292
 31
0.0
 12
3.8242471892306678
 22
7.1442655784771292
 32
0.0
 13
3.8242471892306678
 23
7.1442655784771292
 33
0.0
 39
0.0
  0
SOLID
  5
C8
100
AcDbEntity
100
AcDbTrace
  8
dimensions
 62
256
370
-1
  6
ByLayer
 10
3.8075958029197543
 20
6.9542655784771306
 30
0.0
 11
3.8242471892306678
 21
6.8542655784771309
 31
0.0
 12
3.7909444166088409
 22
6.8542655784771309
 32
0.0
 13
3.7909444166088409
 23
6.8542655784771309
 33
0.0
 39
0.0
  0
LINE
  5
C9
100
AcDbEntity
100
AcDbLine
  8
dimensions
 62
256
370
-1
  6
ByLayer
 10
2.9124425182481972
 20
7.0442655784771295
 30
0.0
 11
3.8575958029197541
 21
7.0442655784771295
 31
0.0
  0
LINE
  5
CA
100
AcDbEntity
100
AcDbLine
  8
dimensions
 62
256
370
-1
  6
ByLayer
 10
2.9124425182481972
 20
6.9542655784771306
 30
0.0
 11
3.8575958029197541
 21
6.9542655784771306
 31
0.0
  0
MTEXT
  5
CB
100
AcDbEntity
100
AcDbMText
  8
dimensions
 62
256
370
-1
  6
ByLayer
 10
3.8999999999999999
 20
7.1944450121109407
 30
0.0
 40
0.1
 41
30.0
 71
5
 72
2
  1
0.09
  7
standard
 50
270.0
 73
0
 44
1.0
  0
LEADER
  5
CC
  8
dimensions
 62
256
370
-1
  6
ByLayer
100
AcDbEntity
100
AcDbLeader
  3
Standard
 71
1
 72
0
 73
3
 74
0
 75
0
 40
1.0
 41
10.0
 76
3
 10
2.2274425182481976
 20
7.3517335766424479
 10
1.5
 20
8.0
 10
1.3
 20
8.0
  0
MTEXT
  5
CD
100
AcDbEntity
100
AcDbMText
  8
dimensions
 62
256
370
-1
  6
ByLayer
 10
1.1918339416058581
 20
7.9664689781023155
 30
0.0
 40
0.1
 41
100.0
 71
9
 72
2
  1
Rectangular\~Cut
  7
standard
 50
0.0
 73
0
 44
1.0
  0
MTEXT
  5
CE
100
AcDbEntity
100
AcDbMText
  8
dimensions
 62
256
370
-1
  6
ByLayer
 10
10.3877737226278501
 20
5.851277372262838
 30
0.0
 40
0.1
 41
100.0
 71
9
 72
2
  1
\U+00f8\~0.32\~Hole
  7
standard
 50
0.0
 73
0
 44
1.0
  0
LINE
  5
CF
100
AcDbEntity
100
AcDbLine
  8
0
 62
256
370
-1
  6
ByLayer
 10
-0.0232040516650809
 20
1.4246006429632345
 30
0.0
 11
13.1017959483349209
 21
1.4246006429632292
 31
0.0
  0
LINE
  5
D0
100
AcDbEntity
100
AcDbLine
  8
0
 62
256
370
-1
  6
ByLayer
 10
13.1017959483349209
 20
1.4246006429632292
 30
0.0
 11
13.1017959483349209
 21
11.424600642963231
 31
0.0
  0
LINE
  5
D1
100
AcDbEntity
100
AcDbLine
  8
0
 62
256
370
-1
  6
ByLayer
 10
13.1017959483349209
 20
11.424600642963231
 30
0.0
 11
-0.0232040516650791
 21
11.4246006429632292
 31
0.0
  0
LINE
  5
D2
100
AcDbEntity
100
AcDbLine
  8
0
 62
256
370
-1
  6
ByLayer
 10
-0.0232040516650791
 20
11.4246006429632292
 30
0.0
 11
-0.0232040516650809
 21
1.4246006429632345
 31
0.0
  0
LINE
  5
D3
100
AcDbEntity
100
AcDbLine
  8
0
 62
256
370
-1
  6
ByLayer
 10
13.1017959483349209
 20
2.1547450832832311
 30
0.0
 11
13.1017959483349209
 21
1.4246006429632292
 31
0.0
  0
LINE
  5
D4
100
AcDbEntity
100
AcDbLine
  8
0
 62
256
370
-1
  6
ByLayer
 10
13.1017959483349209
 20
1.4246006429632292
 30
0.0
 11
-0.0232040516650809
 21
1.4246006429632345
 31
0.0
  0
LINE
  5
D5
100
AcDbEntity
100
AcDbLine
  8
0
 62
256
370
-1
  6
ByLayer
 10
-0.0232040516650809
 20
1.4246006429632345
 30
0.0
 11
-0.0232040516650791
 21
2.1547450832832329
 31
0.0
  0
LINE
  5
D6
100
AcDbEntity
100
AcDbLine
  8
0
 62
256
370
-1
  6
ByLayer
 10
13.1017959483349209
 20
2.1547450832832311
 30
0.0
 11
13.1017959483349209
 21
1.4246006429632292
 31
0.0
  0
LINE
  5
D7
100
AcDbEntity
100
AcDbLine
  8
0
 62
256
370
-1
  6
ByLayer
 10
13.1017959483349209
 20
1.4246006429632292
 30
0.0
 11
4.1429142254549269
 21
1.424600642963231
 31
0.0
  0
LINE
  5
D8
100
AcDbEntity
100
AcDbLine
  8
0
 62
256
370
-1
  6
ByLayer
 10
13.1017959483349209
 20
1.7896728631232328
 30
0.0
 11
13.1017959483349209
 21
1.4246006429632292
 31
0.0
  0
LINE
  5
D9
100
AcDbEntity
100
AcDbLine
  8
0
 62
256
370
-1
  6
ByLayer
 10
13.1017959483349209
 20
1.4246006429632292
 30
0.0
 11
4.1429142254549269
 21
1.424600642963231
 31
0.0
  0
MTEXT
  5
DA
100
AcDbEntity
100
AcDbMText
  8
0
 62
256
370
-1
  6
ByLayer
 10
2.3175531246549212
 20
1.6393490077632329
 30
0.0
 40
0.375
 41
125.0
 71
9
 72
2
  1
Exoteric\P\~\~Analytics
  7
standard
 50
0.0
 73
0
 44
1.0
  0
LINE
  5
DB
100
AcDbEntity
100
AcDbLine
  8
0
 62
256
370
-1
  6
ByLayer
 10
-0.0232040516650791
 20
2.6746006429632345
 30
0.0
 11
13.1017959483349209
 21
2.6746006429632327
 31
0.0
  0
LINE
  5
DC
100
AcDbEntity
100
AcDbLine
  8
0
 62
256
370
-1
  6
ByLayer
 10
13.1017959483349209
 20
2.6746006429632327
 30
0.0
 11
13.1017959483349209
 21
1.4246006429632292
 31
0.0
  0
LINE
  5
DD
100
AcDbEntity
100
AcDbLine
  8
0
 62
256
370
-1
  6
ByLayer
 10
13.1017959483349209
 20
1.4246006429632292
 30
0.0
 11
-0.0232040516650809
 21
1.4246006429632345
 31
0.0
  0
LINE
  5
DE
100
AcDbEntity
100
AcDbLine
  8
0
 62
256
370
-1
  6
ByLayer
 10
-0.0232040516650809
 20
1.4246006429632345
 30
0.0
 11
-0.0232040516650791
 21
2.6746006429632345
 31
0.0
  0
LINE
  5
DF
100
AcDbEntity
100
AcDbLine
  8
0
 62
256
370
-1
  6
ByLayer
 10
3.0476975649749249
 20
2.674600642963231
 30
0.0
 11
13.1017959483349209
 21
2.6746006429632327
 31
0.0
  0
LINE
  5
E0
100
AcDbEntity
100
AcDbLine
  8
0
 62
256
370
-1
  6
ByLayer
 10
13.1017959483349209
 20
2.6746006429632327
 30
0.0
 11
13.1017959483349209
 21
1.4246006429632292
 31
0.0
  0
LINE
  5
E1
100
AcDbEntity
100
AcDbLine
  8
0
 62
256
370
-1
  6
ByLayer
 10
13.1017959483349209
 20
1.4246006429632292
 30
0.0
 11
3.0476975649749214
 21
1.4246006429632327
 31
0.0
  0
LINE
  5
E2
100
AcDbEntity
100
AcDbLine
  8
0
 62
256
370
-1
  6
ByLayer
 10
3.0476975649749214
 20
1.4246006429632327
 30
0.0
 11
3.0476975649749249
 21
2.674600642963231
 31
0.0
  0
LINE
  5
E3
100
AcDbEntity
100
AcDbLine
  8
0
 62
256
370
-1
  6
ByLayer
 10
3.0476975649749249
 20
2.049600642963231
 30
0.0
 11
6.9346429678549306
 21
2.049600642963231
 31
0.0
  0
LINE
  5
E4
100
AcDbEntity
100
AcDbLine
  8
0
 62
256
370
-1
  6
ByLayer
 10
6.9346429678549306
 20
2.049600642963231
 30
0.0
 11
6.9346429678549271
 21
2.674600642963231
 31
0.0
  0
LINE
  5
E5
100
AcDbEntity
100
AcDbLine
  8
0
 62
256
370
-1
  6
ByLayer
 10
6.9346429678549271
 20
2.674600642963231
 30
0.0
 11
3.0476975649749249
 21
2.674600642963231
 31
0.0
  0
LINE
  5
E6
100
AcDbEntity
100
AcDbLine
  8
0
 62
256
370
-1
  6
ByLayer
 10
3.0476975649749249
 20
2.674600642963231
 30
0.0
 11
3.0476975649749249
 21
2.049600642963231
 31
0.0
  0
LINE
  5
E7
100
AcDbEntity
100
AcDbLine
  8
0
 62
256
370
-1
  6
ByLayer
 10
6.9346429678549306
 20
2.049600642963231
 30
0.0
 11
3.0476975649749249
 21
2.049600642963231
 31
0.0
  0
LINE
  5
E8
100
AcDbEntity
100
AcDbLine
  8
0
 62
256
370
-1
  6
ByLayer
 10
3.0476975649749249
 20
2.049600642963231
 30
0.0
 11
3.0476975649749214
 21
1.4246006429632327
 31
0.0
  0
LINE
  5
E9
100
AcDbEntity
100
AcDbLine
  8
0
 62
256
370
-1
  6
ByLayer
 10
3.0476975649749214
 20
1.4246006429632327
 30
0.0
 11
6.9346429678549271
 21
1.424600642963231
 31
0.0
  0
LINE
  5
EA
100
AcDbEntity
100
AcDbLine
  8
0
 62
256
370
-1
  6
ByLayer
 10
6.9346429678549271
 20
1.424600642963231
 30
0.0
 11
6.9346429678549306
 21
2.049600642963231
 31
0.0
  0
MTEXT
  5
EB
100
AcDbEntity
100
AcDbMText
  8
0
 62
256
370
-1
  6
ByLayer
 10
3.928165860654925
 20
2.4553927940032345
 30
0.0
 40
0.125
 41
125.0
 71
9
 72
2
  1
Drawn\~By
  7
standard
 50
0.0
 73
0
 44
1.0
  0
MTEXT
  5
EC
100
AcDbEntity
100
AcDbMText
  8
0
 62
256
370
-1
  6
ByLayer
 10
7.5574132257749334
 20
2.4339179575232333
 30
0.0
 40
0.125
 41
125.0
 71
9
 72
2
  1
Notes
  7
standard
 50
0.0
 73
0
 44
1.0
  0
LINE
  5
ED
100
AcDbEntity
100
AcDbLine
  8
0
 62
256
370
-1
  6
ByLayer
 10
3.0476975649749249
 20
2.049600642963231
 30
0.0
 11
4.991170266414926
 21
2.049600642963231
 31
0.0
  0
LINE
  5
EE
100
AcDbEntity
100
AcDbLine
  8
0
 62
256
370
-1
  6
ByLayer
 10
4.991170266414926
 20
2.049600642963231
 30
0.0
 11
4.9911702664149296
 21
1.424600642963231
 31
0.0
  0
LINE
  5
EF
100
AcDbEntity
100
AcDbLine
  8
0
 62
256
370
-1
  6
ByLayer
 10
4.9911702664149296
 20
1.424600642963231
 30
0.0
 11
3.0476975649749214
 21
1.4246006429632327
 31
0.0
  0
LINE
  5
F0
100
AcDbEntity
100
AcDbLine
  8
0
 62
256
370
-1
  6
ByLayer
 10
3.0476975649749214
 20
1.4246006429632327
 30
0.0
 11
3.0476975649749249
 21
2.049600642963231
 31
0.0
  0
MTEXT
  5
F1
100
AcDbEntity
100
AcDbMText
  8
0
 62
256
370
-1
  6
ByLayer
 10
5.4528792507349273
 20
1.854097372563233
 30
0.0
 40
0.125
 41
125.0
 71
9
 72
2
  1
Date
  7
standard
 50
0.0
 73
0
 44
1.0
  0
MTEXT
  5
F2
100
AcDbEntity
100
AcDbMText
  8
0
 62
256
370
-1
  6
ByLayer
 10
3.7134174958549266
 20
1.854097372563233
 30
0.0
 40
0.125
 41
125.0
 71
9
 72
2
  1
Version
  7
standard
 50
0.0
 73
0
 44
1.0
  0
MTEXT
  5
F3
100
AcDbEntity
100
AcDbMText
  8
border
 62
256
370
-1
  6
ByLayer
 10
6.5394046532847785
 20
2.2268476277372624
 30
0.0
 40
0.2
 41
100.0
 71
9
 72
2
  1
Russell\~Valentine
  7
standard
 50
0.0
 73
0
 44
1.0
  0
MTEXT
  5
F4
100
AcDbEntity
100
AcDbMText
  8
border
 62
256
370
-1
  6
ByLayer
 10
6.7746350364964609
 20
1.5525205291971056
 30
0.0
 40
0.2
 41
100.0
 71
9
 72
2
  1
2010-09-07
  7
standard
 50
0.0
 73
0
 44
1.0
  0
MTEXT
  5
F5
100
AcDbEntity
100
AcDbMText
  8
border
 62
256
370
-1
  6
ByLayer
 10
12.1222779805354737
 20
1.7433064679643437
 30
0.0
 40
0.2
 41
100.0
 71
9
 72
2
  1
Unit\~enclosure\~modifications\~to\~\PPolycase\~BF-030315\~
  7
standard
 50
0.0
 73
0
 44
1.0
  0
LINE
  5
F6
100
AcDbEntity
100
AcDbLine
  8
board
 62
256
370
-1
  6
ByLayer
 10
2.1890802919708423
 20
7.9749999999999996
 30
0.0
 11
2.2510802919708421
 21
7.9749999999999996
 31
0.0
  0
LINE
  5
F7
100
AcDbEntity
100
AcDbLine
  8
board
 62
256
370
-1
  6
ByLayer
 10
2.2510802919708421
 20
7.9749999999999996
 30
0.0
 11
2.2510802919708421
 21
6.0249999999999995
 31
0.0
  0
LINE
  5
F8
100
AcDbEntity
100
AcDbLine
  8
board
 62
256
370
-1
  6
ByLayer
 10
2.2510802919708421
 20
6.0249999999999995
 30
0.0
 11
2.1890802919708423
 21
6.0249999999999995
 31
0.0
  0
LINE
  5
F9
100
AcDbEntity
100
AcDbLine
  8
board
 62
256
370
-1
  6
ByLayer
 10
2.1890802919708423
 20
6.0249999999999995
 30
0.0
 11
2.1890802919708423
 21
7.9749999999999996
 31
0.0
  0
LINE
  5
FA
100
AcDbEntity
100
AcDbLine
  8
board
 62
256
370
-1
  6
ByLayer
 10
2.2510802919708421
 20
7.6799999999999997
 30
0.0
 11
2.8610802919708425
 21
7.6799999999999997
 31
0.0
  0
LINE
  5
FB
100
AcDbEntity
100
AcDbLine
  8
board
 62
256
370
-1
  6
ByLayer
 10
2.8610802919708425
 20
7.6799999999999997
 30
0.0
 11
2.8610802919708425
 21
7.0800000000000001
 31
0.0
  0
LINE
  5
FC
100
AcDbEntity
100
AcDbLine
  8
board
 62
256
370
-1
  6
ByLayer
 10
2.8610802919708425
 20
7.0800000000000001
 30
0.0
 11
2.2510802919708421
 21
7.0800000000000001
 31
0.0
  0
LINE
  5
FD
100
AcDbEntity
100
AcDbLine
  8
board
 62
256
370
-1
  6
ByLayer
 10
2.2510802919708421
 20
7.0800000000000001
 30
0.0
 11
2.2510802919708421
 21
7.6799999999999997
 31
0.0
  0
LINE
  5
FE
100
AcDbEntity
100
AcDbLine
  8
board
 62
256
370
-1
  6
ByLayer
 10
2.2510802919708421
 20
6.9300000000000006
 30
0.0
 11
2.8610802919708425
 21
6.9300000000000006
 31
0.0
  0
LINE
  5
FF
100
AcDbEntity
100
AcDbLine
  8
board
 62
256
370
-1
  6
ByLayer
 10
2.8610802919708425
 20
6.9300000000000006
 30
0.0
 11
2.8610802919708425
 21
6.330000000000001
 31
0.0
  0
LINE
  5
100
100
AcDbEntity
100
AcDbLine
  8
board
 62
256
370
-1
  6
ByLayer
 10
2.8610802919708425
 20
6.330000000000001
 30
0.0
 11
2.2510802919708421
 21
6.330000000000001
 31
0.0
  0
LINE
  5
101
100
AcDbEntity
100
AcDbLine
  8
board
 62
256
370
-1
  6
ByLayer
 10
2.2510802919708421
 20
6.330000000000001
 30
0.0
 11
2.2510802919708421
 21
6.9300000000000006
 31
0.0
  0
MTEXT
  5
102
100
AcDbEntity
100
AcDbMText
  8
0
 62
256
370
-1
  6
ByLayer
 10
4.6870437956205349
 20
1.8544708029197476
 30
0.0
 40
0.125
 41
125.0
 71
9
 72
2
  1
Units
  7
standard
 50
0.0
 73
0
 44
1.0
  0
MTEXT
  5
103
100
AcDbEntity
100
AcDbMText
  8
border
 62
256
370
-1
  6
ByLayer
 10
4.9376534388304476
 20
1.5310243674457202
 30
0.0
 40
0.2
 41
100.0
 71
9
 72
2
  1
Inches
  7
standard
 50
0.0
 73
0
 44
1.0
  0
LINE
  5
104
100
AcDbEntity
100
AcDbLine
  8
border
 62
256
370
-1
  6
ByLayer
 10
3.0476975649749249
 20
2.049600642963231
 30
0.0
 11
4.0194339156949255
 21
2.049600642963231
 31
0.0
  0
LINE
  5
105
100
AcDbEntity
100
AcDbLine
  8
border
 62
256
370
-1
  6
ByLayer
 10
4.0194339156949255
 20
2.049600642963231
 30
0.0
 11
4.0194339156949255
 21
1.4246006429632319
 31
0.0
  0
LINE
  5
106
100
AcDbEntity
100
AcDbLine
  8
border
 62
256
370
-1
  6
ByLayer
 10
4.0194339156949255
 20
1.4246006429632319
 30
0.0
 11
3.0476975649749249
 21
1.4246006429632319
 31
0.0
  0
LINE
  5
107
100
AcDbEntity
100
AcDbLine
  8
border
 62
256
370
-1
  6
ByLayer
 10
3.0476975649749249
 20
1.4246006429632319
 30
0.0
 11
3.0476975649749249
 21
2.049600642963231
 31
0.0
  0
LINE
  5
108
100
AcDbEntity
100
AcDbLine
  8
contour
 62
256
370
-1
  6
ByLayer
 10
1.9354425182481976
 20
7.8327655784771295
 30
0.0
 11
1.8404425182481976
 21
7.779265578477129
 31
0.0
  0
LINE
  5
109
100
AcDbEntity
100
AcDbLine
  8
contour
 62
256
370
-1
  6
ByLayer
 10
1.9354425182481976
 20
7.9157655784771297
 30
0.0
 11
1.8404425182481976
 21
7.9692655784771294
 31
0.0
  0
LINE
  5
10A
100
AcDbEntity
100
AcDbLine
  8
contour
 62
256
370
-1
  6
ByLayer
 10
1.9354425182481976
 20
6.1657655784771297
 30
0.0
 11
1.8404425182481974
 21
6.2192655784771294
 31
0.0
  0
LINE
  5
10B
100
AcDbEntity
100
AcDbLine
  8
contour
 62
256
370
-1
  6
ByLayer
 10
1.9354425182481976
 20
6.0827655784771295
 30
0.0
 11
1.8404425182481974
 21
6.029265578477129
 31
0.0
  0
LINE
  5
10C
100
AcDbEntity
100
AcDbLine
  8
contour
 62
256
370
-1
  6
ByLayer
 10
12.1771259124088562
 20
6.0842344215228703
 30
0.0
 11
12.2721259124088569
 21
6.0307344215228706
 31
0.0
  0
LINE
  5
10D
100
AcDbEntity
100
AcDbLine
  8
contour
 62
256
370
-1
  6
ByLayer
 10
12.1771259124088562
 20
6.1672344215228705
 30
0.0
 11
12.2721259124088569
 21
6.220734421522871
 31
0.0
  0
LINE
  5
10E
100
AcDbEntity
100
AcDbLine
  8
contour
 62
256
370
-1
  6
ByLayer
 10
12.1771259124088562
 20
7.8342344215228703
 30
0.0
 11
12.2721259124088569
 21
7.7807344215228706
 31
0.0
  0
LINE
  5
10F
100
AcDbEntity
100
AcDbLine
  8
contour
 62
256
370
-1
  6
ByLayer
 10
12.1771259124088562
 20
7.9172344215228705
 30
0.0
 11
12.2721259124088569
 21
7.970734421522871
 31
0.0
  0
MTEXT
  5
110
100
AcDbEntity
100
AcDbMText
  8
dimensions
 62
256
370
-1
  6
ByLayer
 10
5.1687956204380123
 20
5.1286496350365525
 30
0.0
 40
0.1
 41
100.0
 71
9
 72
2
  1
#4\~counter\~sunk\~holes
  7
standard
 50
0.0
 73
0
 44
1.0
  0
LEADER
  5
111
  8
dimensions
 62
256
370
-1
  6
ByLayer
100
AcDbEntity
100
AcDbLeader
  3
Standard
 71
1
 72
0
 73
3
 74
0
 75
0
 40
1.0
 41
10.0
 76
3
 10
1.8404425182481974
 20
6.029265578477129
 10
1.6000000000000001
 20
5.9000000000000004
 10
1.5
 20
5.9000000000000004
  0
MTEXT
  5
112
100
AcDbEntity
100
AcDbMText
  8
dimensions
 62
256
370
-1
  6
ByLayer
 10
1.4328659498207912
 20
5.8665290322580752
 30
0.0
 40
0.1
 41
100.0
 71
9
 72
0
  1
#4\~Counter\~\Psunk\~holes
  7
standard
 50
0.0
 73
1
 44
1.0
  0
LINE
  5
113
100
AcDbEntity
100
AcDbLine
  8
standoffs
 62
256
370
-1
  6
ByLayer
 10
1.9354425182481976
 20
7.9692655784771294
 30
0.0
 11
2.1854425182481974
 21
7.9692655784771294
 31
0.0
  0
LINE
  5
114
100
AcDbEntity
100
AcDbLine
  8
standoffs
 62
256
370
-1
  6
ByLayer
 10
2.1854425182481974
 20
7.9692655784771294
 30
0.0
 11
2.1854425182481974
 21
7.779265578477129
 31
0.0
  0
LINE
  5
115
100
AcDbEntity
100
AcDbLine
  8
standoffs
 62
256
370
-1
  6
ByLayer
 10
2.1854425182481974
 20
7.779265578477129
 30
0.0
 11
1.9354425182481976
 21
7.779265578477129
 31
0.0
  0
LINE
  5
116
100
AcDbEntity
100
AcDbLine
  8
standoffs
 62
256
370
-1
  6
ByLayer
 10
1.9354425182481976
 20
7.779265578477129
 30
0.0
 11
1.9354425182481976
 21
7.9692655784771294
 31
0.0
  0
LINE
  5
117
100
AcDbEntity
100
AcDbLine
  8
standoffs
 62
256
370
-1
  6
ByLayer
 10
1.9354425182481976
 20
6.2192655784771294
 30
0.0
 11
2.1854425182481974
 21
6.2192655784771294
 31
0.0
  0
LINE
  5
118
100
AcDbEntity
100
AcDbLine
  8
standoffs
 62
256
370
-1
  6
ByLayer
 10
2.1854425182481974
 20
6.2192655784771294
 30
0.0
 11
2.1854425182481974
 21
6.029265578477129
 31
0.0
  0
LINE
  5
119
100
AcDbEntity
100
AcDbLine
  8
standoffs
 62
256
370
-1
  6
ByLayer
 10
2.1854425182481974
 20
6.029265578477129
 30
0.0
 11
1.9354425182481976
 21
6.029265578477129
 31
0.0
  0
LINE
  5
11A
100
AcDbEntity
100
AcDbLine
  8
standoffs
 62
256
370
-1
  6
ByLayer
 10
1.9354425182481976
 20
6.029265578477129
 30
0.0
 11
1.9354425182481976
 21
6.2192655784771294
 31
0.0
  0
LINE
  5
11B
100
AcDbEntity
100
AcDbLine
  8
standoffs
 62
256
370
-1
  6
ByLayer
 10
1.9354425182481976
 20
7.9157655784771297
 30
0.0
 11
2.1854425182481974
 21
7.9157655784771297
 31
0.0
  0
LINE
  5
11C
100
AcDbEntity
100
AcDbLine
  8
standoffs
 62
256
370
-1
  6
ByLayer
 10
2.1854425182481974
 20
7.9157655784771297
 30
0.0
 11
2.1854425182481974
 21
7.8327655784771295
 31
0.0
  0
LINE
  5
11D
100
AcDbEntity
100
AcDbLine
  8
standoffs
 62
256
370
-1
  6
ByLayer
 10
2.1854425182481974
 20
7.8327655784771295
 30
0.0
 11
1.9354425182481976
 21
7.8327655784771295
 31
0.0
  0
LINE
  5
11E
100
AcDbEntity
100
AcDbLine
  8
standoffs
 62
256
370
-1
  6
ByLayer
 10
1.9354425182481976
 20
7.8327655784771295
 30
0.0
 11
1.9354425182481976
 21
7.9157655784771297
 31
0.0
  0
LINE
  5
11F
100
AcDbEntity
100
AcDbLine
  8
standoffs
 62
256
370
-1
  6
ByLayer
 10
1.9354425182481976
 20
6.1657655784771297
 30
0.0
 11
2.1854425182481974
 21
6.1657655784771297
 31
0.0
  0
LINE
  5
120
100
AcDbEntity
100
AcDbLine
  8
standoffs
 62
256
370
-1
  6
ByLayer
 10
2.1854425182481974
 20
6.1657655784771297
 30
0.0
 11
2.1854425182481974
 21
6.0827655784771295
 31
0.0
  0
LINE
  5
121
100
AcDbEntity
100
AcDbLine
  8
standoffs
 62
256
370
-1
  6
ByLayer
 10
2.1854425182481974
 20
6.0827655784771295
 30
0.0
 11
1.9354425182481976
 21
6.0827655784771295
 31
0.0
  0
LINE
  5
122
100
AcDbEntity
100
AcDbLine
  8
standoffs
 62
256
370
-1
  6
ByLayer
 10
1.9354425182481976
 20
6.0827655784771295
 30
0.0
 11
1.9354425182481976
 21
6.1657655784771297
 31
0.0
  0
LINE
  5
123
100
AcDbEntity
100
AcDbLine
  8
standoffs
 62
256
370
-1
  6
ByLayer
 10
12.1771259124088562
 20
6.0307344215228706
 30
0.0
 11
11.9271259124088562
 21
6.0307344215228706
 31
0.0
  0
LINE
  5
124
100
AcDbEntity
100
AcDbLine
  8
standoffs
 62
256
370
-1
  6
ByLayer
 10
11.9271259124088562
 20
6.0307344215228706
 30
0.0
 11
11.9271259124088562
 21
6.220734421522871
 31
0.0
  0
LINE
  5
125
100
AcDbEntity
100
AcDbLine
  8
standoffs
 62
256
370
-1
  6
ByLayer
 10
11.9271259124088562
 20
6.220734421522871
 30
0.0
 11
12.1771259124088562
 21
6.220734421522871
 31
0.0
  0
LINE
  5
126
100
AcDbEntity
100
AcDbLine
  8
standoffs
 62
256
370
-1
  6
ByLayer
 10
12.1771259124088562
 20
6.220734421522871
 30
0.0
 11
12.1771259124088562
 21
6.0307344215228706
 31
0.0
  0
LINE
  5
127
100
AcDbEntity
100
AcDbLine
  8
standoffs
 62
256
370
-1
  6
ByLayer
 10
12.1771259124088562
 20
7.7807344215228706
 30
0.0
 11
11.9271259124088562
 21
7.7807344215228706
 31
0.0
  0
LINE
  5
128
100
AcDbEntity
100
AcDbLine
  8
standoffs
 62
256
370
-1
  6
ByLayer
 10
11.9271259124088562
 20
7.7807344215228706
 30
0.0
 11
11.9271259124088562
 21
7.970734421522871
 31
0.0
  0
LINE
  5
129
100
AcDbEntity
100
AcDbLine
  8
standoffs
 62
256
370
-1
  6
ByLayer
 10
11.9271259124088562
 20
7.970734421522871
 30
0.0
 11
12.1771259124088562
 21
7.970734421522871
 31
0.0
  0
LINE
  5
12A
100
AcDbEntity
100
AcDbLine
  8
standoffs
 62
256
370
-1
  6
ByLayer
 10
12.1771259124088562
 20
7.970734421522871
 30
0.0
 11
12.1771259124088562
 21
7.7807344215228706
 31
0.0
  0
LINE
  5
12B
100
AcDbEntity
100
AcDbLine
  8
standoffs
 62
256
370
-1
  6
ByLayer
 10
12.1771259124088562
 20
6.0842344215228703
 30
0.0
 11
11.927125912408858
 21
6.0842344215228703
 31
0.0
  0
LINE
  5
12C
100
AcDbEntity
100
AcDbLine
  8
standoffs
 62
256
370
-1
  6
ByLayer
 10
11.927125912408858
 20
6.0842344215228703
 30
0.0
 11
11.927125912408858
 21
6.1672344215228705
 31
0.0
  0
LINE
  5
12D
100
AcDbEntity
100
AcDbLine
  8
standoffs
 62
256
370
-1
  6
ByLayer
 10
11.927125912408858
 20
6.1672344215228705
 30
0.0
 11
12.1771259124088562
 21
6.1672344215228705
 31
0.0
  0
LINE
  5
12E
100
AcDbEntity
100
AcDbLine
  8
standoffs
 62
256
370
-1
  6
ByLayer
 10
12.1771259124088562
 20
6.1672344215228705
 30
0.0
 11
12.1771259124088562
 21
6.0842344215228703
 31
0.0
  0
LINE
  5
12F
100
AcDbEntity
100
AcDbLine
  8
standoffs
 62
256
370
-1
  6
ByLayer
 10
12.1771259124088562
 20
7.8342344215228703
 30
0.0
 11
11.9271259124088562
 21
7.8342344215228703
 31
0.0
  0
LINE
  5
130
100
AcDbEntity
100
AcDbLine
  8
standoffs
 62
256
370
-1
  6
ByLayer
 10
11.9271259124088562
 20
7.8342344215228703
 30
0.0
 11
11.9271259124088562
 21
7.9172344215228705
 31
0.0
  0
LINE
  5
131
100
AcDbEntity
100
AcDbLine
  8
standoffs
 62
256
370
-1
  6
ByLayer
 10
11.9271259124088562
 20
7.9172344215228705
 30
0.0
 11
12.1771259124088562
 21
7.9172344215228705
 31
0.0
  0
LINE
  5
132
100
AcDbEntity
100
AcDbLine
  8
standoffs
 62
256
370
-1
  6
ByLayer
 10
12.1771259124088562
 20
7.9172344215228705
 30
0.0
 11
12.1771259124088562
 21
7.8342344215228703
 31
0.0
  0
MTEXT
  5
133
100
AcDbEntity
100
AcDbMText
  8
border
 62
256
370
-1
  6
ByLayer
 10
3.8420962591241663
 20
1.5289974908759438
 30
0.0
 40
0.2
 41
100.0
 71
9
 72
2
  1
0.02
  7
standard
 50
0.0
 73
0
 44
1.0
  0
ENDSEC
  0
SECTION
  2
OBJECTS
  0
DICTIONARY
  5
C
100
AcDbDictionary
280
0
281
1
  3
ACAD_GROUP
350
D
  3
ACAD_LAYOUT
350
1A
  3
ACAD_MLINESTYLE
350
17
  3
ACAD_PLOTSETTINGS
350
19
  3
ACAD_PLOTSTYLENAME
350
E
  3
AcDbVariableDictionary
350
134
  0
DICTIONARY
  5
D
100
AcDbDictionary
280
0
281
1
  0
ACDBDICTIONARYWDFLT
  5
E
100
AcDbDictionary
281
1
  3
Normal
350
F
100
AcDbDictionaryWithDefault
340
F
  0
ACDBPLACEHOLDER
  5
F
  0
DICTIONARY
  5
17
100
AcDbDictionary
280
0
281
1
  3
Standard
350
18
  0
MLINESTYLE
  5
18
100
AcDbMlineStyle
  2
STANDARD
 70
0
  3

 62
256
 51
90.0
 52
90.0
 71
2
 49
0.5
 62
256
  6
BYLAYER
 49
-0.5
 62
256
  6
BYLAYER
  0
DICTIONARY
  5
19
100
AcDbDictionary
280
0
281
1
  0
DICTIONARY
  5
1A
100
AcDbDictionary
281
1
  3
Layout1
350
1E
  3
Layout2
350
26
  3
Model
350
22
  0
LAYOUT
  5
1E
100
AcDbPlotSettings
  1

  2
C:\Program Files\AutoCAD 2002\plotters\DWF ePlot (optimized for plotting).pc3
  4

  6

 40
0.0
 41
0.0
 42
0.0
 43
0.0
 44
0.0
 45
0.0
 46
0.0
 47
0.0
 48
0.0
 49
0.0
140
0.0
141
0.0
142
1.0
143
1.0
 70
688
 72
0
 73
0
 74
5
  7

 75
16
147
1.0
148
0.0
149
0.0
100
AcDbLayout
  1
Layout1
 70
1
 71
1
 10
0.0
 20
0.0
 11
420.0
 21
297.0
 12
0.0
 22
0.0
 32
0.0
 14
100000000000000000000.0
 24
100000000000000000000.0
 34
100000000000000000000.0
 15
-100000000000000000000.0
 25
-100000000000000000000.0
 35
-100000000000000000000.0
146
0.0
 13
0.0
 23
0.0
 33
0.0
 16
1.0
 26
0.0
 36
0.0
 17
0.0
 27
1.0
 37
0.0
 76
0
330
1B
  0
LAYOUT
  5
22
100
AcDbPlotSettings
  1

  2
C:\Program Files\AutoCAD 2002\plotters\DWF ePlot (optimized for plotting).pc3
  4

  6

 40
0.0
 41
0.0
 42
0.0
 43
0.0
 44
0.0
 45
0.0
 46
0.0
 47
0.0
 48
0.0
 49
0.0
140
0.0
141
0.0
142
1.0
143
1.0
 70
1712
 72
0
 73
0
 74
0
  7

 75
0
147
1.0
148
0.0
149
0.0
100
AcDbLayout
  1
Model
 70
1
 71
0
 10
0.0
 20
0.0
 11
12.0
 21
9.0
 12
0.0
 22
0.0
 32
0.0
 14
0.0
 24
0.0
 34
0.0
 15
0.0
 25
0.0
 35
0.0
146
0.0
 13
0.0
 23
0.0
 33
0.0
 16
1.0
 26
0.0
 36
0.0
 17
0.0
 27
1.0
 37
0.0
 76
0
330
1F
  0
LAYOUT
  5
26
100
AcDbPlotSettings
  1

  2
C:\Program Files\AutoCAD 2002\plotters\DWF ePlot (optimized for plotting).pc3
  4

  6

 40
0.0
 41
0.0
 42
0.0
 43
0.0
 44
0.0
 45
0.0
 46
0.0
 47
0.0
 48
0.0
 49
0.0
140
0.0
141
0.0
142
1.0
143
1.0
 70
688
 72
0
 73
0
 74
5
  7

 75
16
147
1.0
148
0.0
149
0.0
100
AcDbLayout
  1
Layout2
 70
1
 71
2
 10
0.0
 20
0.0
 11
12.0
 21
9.0
 12
0.0
 22
0.0
 32
0.0
 14
0.0
 24
0.0
 34
0.0
 15
0.0
 25
0.0
 35
0.0
146
0.0
 13
0.0
 23
0.0
 33
0.0
 16
1.0
 26
0.0
 36
0.0
 17
0.0
 27
1.0
 37
0.0
 76
0
330
23
  0
DICTIONARY
  5
134
100
AcDbDictionary
281
1
  3
DIMASSOC
350
136
  3
HIDETEXT
350
135
  0
DICTIONARYVAR
  5
135
100
DictionaryVariables
280
0
  1
2
  0
DICTIONARYVAR
  5
136
100
DictionaryVariables
280
0
  1
1
  0
ENDSEC
  0
EOF
